STARTFONT 2.1
COMMENT
COMMENT Converted from OpenType font "Q:\font stuff\winfont\Maetl.ttf" by "otf2bdf 3.0".
COMMENT
FONT -FreeType-Maetl-Medium-R-Normal--40-400-72-72-P-240-ISO10646-1
SIZE 40 72 72
FONTBOUNDINGBOX 52 54 -5 -11
STARTPROPERTIES 19
FOUNDRY "FreeType"
FAMILY_NAME "Maetl"
WEIGHT_NAME "Medium"
SLANT "R"
SETWIDTH_NAME "Normal"
ADD_STYLE_NAME ""
PIXEL_SIZE 40
POINT_SIZE 400
RESOLUTION_X 72
RESOLUTION_Y 72
SPACING "P"
AVERAGE_WIDTH 240
CHARSET_REGISTRY "ISO10646"
CHARSET_ENCODING "1"
FONT_ASCENT 42
FONT_DESCENT 10
COPYRIGHT "Copyright 2002 YouWorkForThem.  All Rights Reserved. http://www.youworkforthem.com.  YWFT Administration Contact: info@youworkforthem.com"
_OTF_FONTFILE "Q:\font stuff\winfont\Maetl.ttf"
_OTF_PSNAME "Maetl"
ENDPROPERTIES
CHARS 246
STARTCHAR 0020
ENCODING 32
SWIDTH 300 0
DWIDTH 12 0
BBX 0 0 0 0
BITMAP
ENDCHAR
STARTCHAR 0021
ENCODING 33
SWIDTH 275 0
DWIDTH 11 0
BBX 5 29 3 0
BITMAP
F8
F8
F8
F8
F8
F8
F8
F8
F8
F8
F8
F8
F8
F8
F8
F8
F8
F8
F8
F8
00
00
00
00
F8
F8
F8
F8
F8
ENDCHAR
STARTCHAR 0022
ENCODING 34
SWIDTH 450 0
DWIDTH 18 0
BBX 12 8 3 21
BITMAP
F9F0
F9F0
F9F0
F9F0
F9F0
F9F0
F9F0
70E0
ENDCHAR
STARTCHAR 0023
ENCODING 35
SWIDTH 725 0
DWIDTH 29 0
BBX 23 23 3 3
BITMAP
07C7C0
07C7C0
07C7C0
07C7C0
07C7C0
FFFFFE
FFFFFE
FFFFFE
FFFFFE
FFFFFE
07C7C0
07C7C0
07C7C0
FFFFFE
FFFFFE
FFFFFE
FFFFFE
FFFFFE
07C7C0
07C7C0
07C7C0
07C7C0
07C7C0
ENDCHAR
STARTCHAR 0024
ENCODING 36
SWIDTH 875 0
DWIDTH 35 0
BBX 28 35 3 -3
BITMAP
000F0000
000F0000
000F0000
000F0000
000F0000
0FFFFF00
1FFFFF80
3FFFFFC0
7FFFFFE0
FFFFFFF0
F00000F0
F00000F0
F0000000
F0000000
F0000000
FFFFFF00
7FFFFF80
3FFFFFC0
1FFFFFE0
0FFFFFF0
000000F0
000000F0
000000F0
F00000F0
F00000F0
FFFFFFF0
7FFFFFE0
3FFFFFC0
1FFFFF80
0FFFFF00
000F0000
000F0000
000F0000
000F0000
000F0000
ENDCHAR
STARTCHAR 0025
ENCODING 37
SWIDTH 875 0
DWIDTH 35 0
BBX 29 29 3 0
BITMAP
0FC003E0
1FE003E0
3FF003E0
7DFC03E0
F8FE03E0
F83E07C0
F01E0F80
F01E1F00
F83E3E00
F87E7C00
7CFCF800
3FF9F000
1FF3E000
1FE7C000
0FCF9F80
001F3FC0
003E7FC0
007CFFE0
00F9F9F0
01F3F0F8
03E3E0F8
07C3C078
0FC3C078
1F83E0F8
3F03F9F8
3E01FFF0
3E007FE0
3E003FC0
3E001F80
ENDCHAR
STARTCHAR 0026
ENCODING 38
SWIDTH 875 0
DWIDTH 35 0
BBX 31 29 3 0
BITMAP
07FFF800
0FFFF800
1FFFF800
3FFFF800
7FFFF800
F8000000
F8000000
F8000000
F80007C0
F80007C0
F80007C0
780007C0
3FFFFFFE
1FFFFFFE
0FFFFFFE
1FFFFFFE
3FFFFFFE
780007C0
F80007C0
F80007C0
F80007C0
F80007C0
F80007C0
F80007C0
7FFFFFC0
3FFFFF80
1FFFFF00
0FFFFE00
07FFFC00
ENDCHAR
STARTCHAR 0027
ENCODING 39
SWIDTH 275 0
DWIDTH 11 0
BBX 5 8 3 21
BITMAP
F8
F8
F8
F8
F8
F8
F8
70
ENDCHAR
STARTCHAR 0028
ENCODING 40
SWIDTH 350 0
DWIDTH 14 0
BBX 9 39 3 -5
BITMAP
0780
0F80
1F80
3F80
7F80
F800
F800
F800
F800
F800
F800
F800
F800
F800
F800
F800
F800
F800
F800
F800
F800
F800
F800
F800
F800
F800
F800
F800
F800
F800
F800
F800
F800
F800
7F80
3F80
1F80
0F80
0780
ENDCHAR
STARTCHAR 0029
ENCODING 41
SWIDTH 350 0
DWIDTH 14 0
BBX 9 39 2 -5
BITMAP
F000
F800
FC00
FE00
FF00
0F80
0F80
0F80
0F80
0F80
0F80
0F80
0F80
0F80
0F80
0F80
0F80
0F80
0F80
0F80
0F80
0F80
0F80
0F80
0F80
0F80
0F80
0F80
0F80
0F80
0F80
0F80
0F80
0F80
FF00
FE00
FC00
F800
F000
ENDCHAR
STARTCHAR 002A
ENCODING 42
SWIDTH 725 0
DWIDTH 29 0
BBX 23 20 3 9
BITMAP
003800
007C00
F07C1E
F87C3E
FC7C7E
7E7CFC
3F7DF8
1FFFF0
0FFFE0
07FFC0
07FFC0
0FFFE0
1FFFF0
3F7DF8
7E7CFC
FC7C7E
F87C3E
F07C1E
007C00
003800
ENDCHAR
STARTCHAR 002B
ENCODING 43
SWIDTH 575 0
DWIDTH 23 0
BBX 17 17 3 6
BITMAP
03E000
03E000
03E000
03E000
03E000
03E000
FFFF80
FFFF80
FFFF80
FFFF80
FFFF80
03E000
03E000
03E000
03E000
03E000
03E000
ENDCHAR
STARTCHAR 002C
ENCODING 44
SWIDTH 275 0
DWIDTH 11 0
BBX 5 8 3 -3
BITMAP
F8
F8
F8
F8
78
78
78
38
ENDCHAR
STARTCHAR 002D
ENCODING 45
SWIDTH 500 0
DWIDTH 20 0
BBX 14 5 3 12
BITMAP
FFFC
FFFC
FFFC
FFFC
FFFC
ENDCHAR
STARTCHAR 002E
ENCODING 46
SWIDTH 275 0
DWIDTH 11 0
BBX 5 5 3 0
BITMAP
F8
F8
F8
F8
F8
ENDCHAR
STARTCHAR 002F
ENCODING 47
SWIDTH 725 0
DWIDTH 29 0
BBX 26 29 2 0
BITMAP
000007C0
000007C0
000007C0
000007C0
00000FC0
00001F80
00003F00
00007E00
0000FC00
0001F800
0003F000
0007E000
000FC000
001F8000
003F0000
007E0000
00FC0000
01F80000
03F00000
07E00000
0FC00000
1F800000
3F000000
7E000000
FC000000
F8000000
F8000000
F8000000
F8000000
ENDCHAR
STARTCHAR 0030
ENCODING 48
SWIDTH 850 0
DWIDTH 34 0
BBX 27 29 3 0
BITMAP
07FFFE00
0FFFFF00
1FFFFF80
3FFFFFC0
7FFFFFE0
F80003E0
F80003E0
F80003E0
F80003E0
F80003E0
F80003E0
F80003E0
F80003E0
F80003E0
F80003E0
F80003E0
F80003E0
F80003E0
F80003E0
F80003E0
F80003E0
F80003E0
F80003E0
F80003E0
7FFFFFE0
3FFFFFC0
1FFFFF80
0FFFFF00
07FFFE00
ENDCHAR
STARTCHAR 0031
ENCODING 49
SWIDTH 425 0
DWIDTH 17 0
BBX 13 29 2 0
BITMAP
FF80
FF80
FF80
FF80
FF80
0F80
0F80
0F80
0F80
0F80
0F80
0F80
0F80
0F80
0F80
0F80
0F80
0F80
0F80
0F80
0F80
0F80
0F80
0F80
FFF8
FFF8
FFF8
FFF8
FFF8
ENDCHAR
STARTCHAR 0032
ENCODING 50
SWIDTH 850 0
DWIDTH 34 0
BBX 27 29 3 0
BITMAP
FFFFFE00
FFFFFF00
FFFFFF80
FFFFFFC0
FFFFFFE0
000003E0
000003E0
000003E0
000003E0
000003E0
000003E0
000003E0
07FFFFE0
0FFFFFC0
1FFFFF80
3FFFFF00
7FFFFC00
F8000000
F8000000
F8000000
F8000000
F8000000
F8000000
F8000000
FFFFFFE0
FFFFFFE0
FFFFFFE0
FFFFFFE0
FFFFFFE0
ENDCHAR
STARTCHAR 0033
ENCODING 51
SWIDTH 800 0
DWIDTH 32 0
BBX 26 29 3 0
BITMAP
FFFFFC00
FFFFFE00
FFFFFF00
FFFFFF80
FFFFFFC0
000007C0
000007C0
000007C0
000007C0
000007C0
000007C0
000007C0
FFFFFFC0
FFFFFF80
FFFFFF00
FFFFFF80
FFFFFFC0
000007C0
000007C0
000007C0
000007C0
000007C0
000007C0
000007C0
FFFFFFC0
FFFFFF80
FFFFFF00
FFFFFE00
FFFFFC00
ENDCHAR
STARTCHAR 0034
ENCODING 52
SWIDTH 800 0
DWIDTH 32 0
BBX 28 29 2 0
BITMAP
001F9F00
003F1F00
007E1F00
00FC1F00
01F81F00
03F01F00
07E01F00
0FC01F00
1F801F00
3F001F00
7E001F00
FC001F00
F8001F00
F8001F00
F8001F00
F8001F00
FFFFFFF0
FFFFFFF0
FFFFFFF0
FFFFFFF0
FFFFFFF0
00001F00
00001F00
00001F00
00001F00
00001F00
00001F00
00001F00
00001F00
ENDCHAR
STARTCHAR 0035
ENCODING 53
SWIDTH 800 0
DWIDTH 32 0
BBX 26 29 3 0
BITMAP
FFFFFFC0
FFFFFFC0
FFFFFFC0
FFFFFFC0
FFFFFFC0
F8000000
F8000000
F8000000
F8000000
F8000000
F8000000
FFFFFC00
FFFFFE00
FFFFFF00
FFFFFF80
FFFFFFC0
000007C0
000007C0
000007C0
000007C0
000007C0
000007C0
000007C0
000007C0
FFFFFFC0
FFFFFF80
FFFFFF00
FFFFFE00
FFFFFC00
ENDCHAR
STARTCHAR 0036
ENCODING 54
SWIDTH 850 0
DWIDTH 34 0
BBX 27 29 3 0
BITMAP
07FFFC00
0FFFFC00
1FFFFC00
3FFFFC00
7FFFFC00
F8000000
F8000000
F8000000
F8000000
F8000000
F8000000
F9FFFE00
FBFFFF00
FFFFFF80
FFFFFFC0
FFFFFFE0
F80003E0
F80003E0
F80003E0
F80003E0
F80003E0
F80003E0
F80003E0
F80003E0
7FFFFFE0
3FFFFFC0
1FFFFF80
0FFFFF00
07FFFE00
ENDCHAR
STARTCHAR 0037
ENCODING 55
SWIDTH 675 0
DWIDTH 27 0
BBX 24 29 1 0
BITMAP
FFFFFF
FFFFFF
FFFFFF
FFFFFF
FFFFFF
00007E
0000FC
0001F8
0001F0
0003E0
0007C0
000F80
001F00
003E00
007C00
00F800
00F800
00F800
00F800
00F800
00F800
00F800
00F800
00F800
00F800
00F800
00F800
00F800
00F800
ENDCHAR
STARTCHAR 0038
ENCODING 56
SWIDTH 850 0
DWIDTH 34 0
BBX 27 29 3 0
BITMAP
07FFFE00
0FFFFF00
1FFFFF80
3FFFFFC0
7FFFFFE0
F80003E0
F80003E0
F80003E0
F80003E0
F80003E0
F80003E0
F80003E0
FFFFFFE0
7FFFFFC0
3FFFFF80
7FFFFFC0
FFFFFFE0
F80003E0
F80003E0
F80003E0
F80003E0
F80003E0
F80003E0
F80003E0
7FFFFFE0
3FFFFFC0
1FFFFF80
0FFFFF00
07FFFE00
ENDCHAR
STARTCHAR 0039
ENCODING 57
SWIDTH 850 0
DWIDTH 34 0
BBX 27 29 3 0
BITMAP
07FFFE00
0FFFFF00
1FFFFF80
3FFFFFC0
7FFFFFE0
F80003E0
F80003E0
F80003E0
F80003E0
F80003E0
F80003E0
F80003E0
F80003E0
7FFFFFE0
3FFFFFE0
1FFFFFE0
0FFFFDE0
07FFF1E0
000001E0
000003E0
000003E0
000003E0
000003E0
000003E0
07FFFFE0
07FFFFC0
07FFFF80
07FFFF00
07FFFE00
ENDCHAR
STARTCHAR 003A
ENCODING 58
SWIDTH 275 0
DWIDTH 11 0
BBX 5 17 3 0
BITMAP
F8
F8
F8
F8
F8
00
00
00
00
00
00
00
F8
F8
F8
F8
F8
ENDCHAR
STARTCHAR 003B
ENCODING 59
SWIDTH 275 0
DWIDTH 11 0
BBX 5 20 3 -3
BITMAP
F8
F8
F8
F8
F8
00
00
00
00
00
00
00
F8
F8
F8
F8
78
78
78
38
ENDCHAR
STARTCHAR 003C
ENCODING 60
SWIDTH 425 0
DWIDTH 17 0
BBX 12 19 2 5
BITMAP
00F0
01F0
03F0
07E0
0FC0
1F80
3F00
7E00
FC00
F800
FC00
7E00
3F00
1F80
0FC0
07E0
03F0
01F0
00F0
ENDCHAR
STARTCHAR 003D
ENCODING 61
SWIDTH 600 0
DWIDTH 24 0
BBX 18 13 3 8
BITMAP
FFFFC0
FFFFC0
FFFFC0
FFFFC0
FFFFC0
000000
000000
000000
FFFFC0
FFFFC0
FFFFC0
FFFFC0
FFFFC0
ENDCHAR
STARTCHAR 003E
ENCODING 62
SWIDTH 425 0
DWIDTH 17 0
BBX 12 19 3 5
BITMAP
F000
F800
FC00
7E00
3F00
1F80
0FC0
07E0
03F0
01F0
03F0
07E0
0FC0
1F80
3F00
7E00
FC00
F800
F000
ENDCHAR
STARTCHAR 003F
ENCODING 63
SWIDTH 650 0
DWIDTH 26 0
BBX 21 29 2 0
BITMAP
FFFF00
FFFF80
FFFFC0
FFFFE0
FFFFF0
0000F8
0000F8
0000F8
0000F8
0000F8
0000F8
0000F8
007FF0
00FFE0
01FFC0
03FF80
07FF00
07C000
07C000
07C000
000000
000000
000000
000000
07C000
07C000
07C000
07C000
07C000
ENDCHAR
STARTCHAR 0040
ENCODING 64
SWIDTH 750 0
DWIDTH 30 0
BBX 24 29 3 0
BITMAP
01FFF0
03FFF8
07FFFC
0FFFFE
1FFFFF
3F001F
7E001F
FC001F
F8079F
F80FDF
F81FFF
F83FFF
F87FFF
F8F81F
F8F81F
F8F81F
F87FFE
F83FFC
F81FF8
F80FF0
F807E0
FC0000
7E0000
3F0000
1FFFC0
0FFFC0
07FFC0
03FFC0
01FFC0
ENDCHAR
STARTCHAR 0041
ENCODING 65
SWIDTH 925 0
DWIDTH 37 0
BBX 30 29 3 0
BITMAP
00078000
000FC000
001FE000
003FF000
007EF800
00FC7C00
01F87E00
03F03F00
07E01F80
0FC00FC0
1F8007E0
3F0003F0
7E0001F8
FC0000FC
F800007C
F800007C
FFFFFFFC
FFFFFFFC
FFFFFFFC
FFFFFFFC
FFFFFFFC
F800007C
F800007C
F800007C
F800007C
F800007C
F800007C
F800007C
F800007C
ENDCHAR
STARTCHAR 0042
ENCODING 66
SWIDTH 925 0
DWIDTH 37 0
BBX 30 29 3 0
BITMAP
FFFFFFC0
FFFFFFE0
FFFFFFF0
FFFFFFF8
FFFFFFFC
F800007C
F800007C
F800003C
F800003C
F800003C
F800007C
F80000F8
FFFFFFF8
FFFFFFF0
FFFFFFE0
FFFFFFF0
FFFFFFF0
F80000F8
F800007C
F800003C
F800003C
F800003C
F800007C
F800007C
FFFFFFFC
FFFFFFF8
FFFFFFF0
FFFFFFE0
FFFFFFC0
ENDCHAR
STARTCHAR 0043
ENCODING 67
SWIDTH 925 0
DWIDTH 37 0
BBX 30 29 3 0
BITMAP
07FFFFC0
0FFFFFE0
1FFFFFF0
3FFFFFF8
7FFFFFFC
F800007C
F800007C
F800007C
F800007C
F8000000
F8000000
F8000000
F8000000
F8000000
F8000000
F8000000
F8000000
F8000000
F8000000
F8000000
F800007C
F800007C
F800007C
F800007C
7FFFFFFC
3FFFFFF8
1FFFFFF0
0FFFFFE0
07FFFFC0
ENDCHAR
STARTCHAR 0044
ENCODING 68
SWIDTH 925 0
DWIDTH 37 0
BBX 30 29 3 0
BITMAP
FFFFFFC0
FFFFFFE0
FFFFFFF0
FFFFFFF8
FFFFFFFC
F800007C
F800007C
F800007C
F800007C
F800007C
F800007C
F800007C
F800007C
F800007C
F800007C
F800007C
F800007C
F800007C
F800007C
F800007C
F800007C
F800007C
F800007C
F800007C
FFFFFFFC
FFFFFFF8
FFFFFFF0
FFFFFFE0
FFFFFFC0
ENDCHAR
STARTCHAR 0045
ENCODING 69
SWIDTH 850 0
DWIDTH 34 0
BBX 27 29 3 0
BITMAP
FFFFFFE0
FFFFFFE0
FFFFFFE0
FFFFFFE0
FFFFFFE0
F8000000
F8000000
F8000000
F8000000
F8000000
F8000000
F8000000
FFFFFFE0
FFFFFFE0
FFFFFFE0
FFFFFFE0
FFFFFFE0
F8000000
F8000000
F8000000
F8000000
F8000000
F8000000
F8000000
FFFFFFE0
FFFFFFE0
FFFFFFE0
FFFFFFE0
FFFFFFE0
ENDCHAR
STARTCHAR 0046
ENCODING 70
SWIDTH 750 0
DWIDTH 30 0
BBX 24 29 3 0
BITMAP
FFFFFF
FFFFFF
FFFFFF
FFFFFF
FFFFFF
F80000
F80000
F80000
F80000
F80000
F80000
F80000
FFFFFF
FFFFFF
FFFFFF
FFFFFF
FFFFFF
F80000
F80000
F80000
F80000
F80000
F80000
F80000
F80000
F80000
F80000
F80000
F80000
ENDCHAR
STARTCHAR 0047
ENCODING 71
SWIDTH 925 0
DWIDTH 37 0
BBX 30 29 3 0
BITMAP
07FFFFC0
0FFFFFE0
1FFFFFF0
3FFFFFF8
7FFFFFFC
F800007C
F800007C
F800007C
F800007C
F8000000
F8000000
F8000000
F8000000
F8007FFC
F8007FFC
F8007FFC
F8007FFC
F8007FFC
F800007C
F800007C
F800007C
F800007C
F800007C
F800007C
7FFFFFFC
3FFFFFF8
1FFFFFF0
0FFFFFE0
07FFFFC0
ENDCHAR
STARTCHAR 0048
ENCODING 72
SWIDTH 925 0
DWIDTH 37 0
BBX 30 29 3 0
BITMAP
F800007C
F800007C
F800007C
F800007C
F800007C
F800007C
F800007C
F800007C
F800007C
F800007C
F800007C
F800007C
FFFFFFFC
FFFFFFFC
FFFFFFFC
FFFFFFFC
FFFFFFFC
F800007C
F800007C
F800007C
F800007C
F800007C
F800007C
F800007C
F800007C
F800007C
F800007C
F800007C
F800007C
ENDCHAR
STARTCHAR 0049
ENCODING 73
SWIDTH 500 0
DWIDTH 20 0
BBX 16 29 2 0
BITMAP
FFFF
FFFF
FFFF
FFFF
FFFF
03E0
03E0
03E0
03E0
03E0
03E0
03E0
03E0
03E0
03E0
03E0
03E0
03E0
03E0
03E0
03E0
03E0
03E0
03E0
FFFF
FFFF
FFFF
FFFF
FFFF
ENDCHAR
STARTCHAR 004A
ENCODING 74
SWIDTH 850 0
DWIDTH 34 0
BBX 29 29 2 0
BITMAP
00007FF8
00007FF8
00007FF8
00007FF8
00007FF8
000000F8
000000F8
000000F8
000000F8
000000F8
000000F8
000000F8
000000F8
000000F8
000000F8
000000F8
000000F8
000000F8
000000F8
000000F8
F80000F8
F80000F8
F80000F8
F80000F8
FFFFFFF0
7FFFFFE0
3FFFFFC0
1FFFFF80
0FFFFF00
ENDCHAR
STARTCHAR 004B
ENCODING 75
SWIDTH 850 0
DWIDTH 34 0
BBX 29 29 3 0
BITMAP
F80000F8
F80001F8
F80003F0
F80007E0
F8000FC0
F8001F80
F8003F00
F8007E00
F800FC00
F801F800
F803E000
F807C000
FFFF8000
FFFF0000
FFFE0000
FFFF0000
FFFF8000
F807C000
F803E000
F801F000
F800F800
F8007C00
F8003F00
F8001F80
F8000FC0
F80007E0
F80003F0
F80001F8
F80000F8
ENDCHAR
STARTCHAR 004C
ENCODING 76
SWIDTH 675 0
DWIDTH 27 0
BBX 24 29 3 0
BITMAP
F80000
F80000
F80000
F80000
F80000
F80000
F80000
F80000
F80000
F80000
F80000
F80000
F80000
F80000
F80000
F80000
F80000
F80000
F80000
F80000
F80000
F80000
F80000
F80000
FFFFFF
FFFFFF
FFFFFF
FFFFFF
FFFFFF
ENDCHAR
STARTCHAR 004D
ENCODING 77
SWIDTH 950 0
DWIDTH 38 0
BBX 32 29 3 0
BITMAP
F800001F
FC00003F
FE00007F
FF0000FF
FF8001FF
FFC003FF
FFE007DF
FBF00F9F
F9F81F1F
F8FC3F1F
F87E7E1F
F83FFC1F
F81FF81F
F80FF01F
F807E01F
F803C01F
F801801F
F800001F
F800001F
F800001F
F800001F
F800001F
F800001F
F800001F
F800001F
F800001F
F800001F
F800001F
F800001F
ENDCHAR
STARTCHAR 004E
ENCODING 78
SWIDTH 950 0
DWIDTH 38 0
BBX 32 29 3 0
BITMAP
F800001F
FC00001F
FE00001F
FF00001F
FF80001F
FFC0001F
FFE0001F
FBF0001F
F9F8001F
F8FC001F
F87E001F
F83F001F
F81F801F
F80FC01F
F807E01F
F803F01F
F801F81F
F800FC1F
F8007C1F
F8003E1F
F8001F1F
F8000F9F
F80007DF
F80003FF
F80001FF
F80000FF
F800007F
F800003F
F800001F
ENDCHAR
STARTCHAR 004F
ENCODING 79
SWIDTH 925 0
DWIDTH 37 0
BBX 30 29 3 0
BITMAP
07FFFFC0
0FFFFFE0
1FFFFFF0
3FFFFFF8
7FFFFFFC
F800007C
F800007C
F800007C
F800007C
F800007C
F800007C
F800007C
F800007C
F800007C
F800007C
F800007C
F800007C
F800007C
F800007C
F800007C
F800007C
F800007C
F800007C
F800007C
7FFFFFFC
3FFFFFF8
1FFFFFF0
0FFFFFE0
07FFFFC0
ENDCHAR
STARTCHAR 0050
ENCODING 80
SWIDTH 800 0
DWIDTH 32 0
BBX 27 29 3 0
BITMAP
FFFFFE00
FFFFFF00
FFFFFF80
FFFFFFC0
FFFFFFE0
F80003E0
F80003E0
F80003E0
F80003E0
F80003E0
F80003E0
F80003E0
F80003E0
F80003E0
F80003E0
F80003E0
FFFFFFE0
FFFFFFC0
FFFFFF80
FFFFFF00
FFFFFE00
F8000000
F8000000
F8000000
F8000000
F8000000
F8000000
F8000000
F8000000
ENDCHAR
STARTCHAR 0051
ENCODING 81
SWIDTH 925 0
DWIDTH 37 0
BBX 33 34 3 -5
BITMAP
07FFFFC000
0FFFFFE000
1FFFFFF000
3FFFFFF800
7FFFFFFC00
F800007C00
F800007C00
F800007C00
F800007C00
F800007C00
F800007C00
F800007C00
F800007C00
F800007C00
F800007C00
F800007C00
F800007C00
F800007C00
F800007C00
F800007C00
F800007C00
F800007C00
F800007800
F800007000
7FFFFFE000
3FFFFFE000
1FFFFFF000
0FFFFFF000
07FFFFF800
0000007C00
0000003E00
0000001F00
0000000F80
0000000780
ENDCHAR
STARTCHAR 0052
ENCODING 82
SWIDTH 925 0
DWIDTH 37 0
BBX 30 29 3 0
BITMAP
FFFFFFC0
FFFFFFE0
FFFFFFF0
FFFFFFF8
FFFFFFFC
F800007C
F800007C
F800007C
F800007C
F800007C
F800007C
F800007C
FFFFFFFC
FFFFFFF8
FFFFFFF0
FFFFFFE0
FFFFFFC0
F803F000
F801F800
F800FC00
F8007E00
F8003E00
F8001F00
F8000F80
F80007C0
F80003E0
F80001F0
F80000F8
F800007C
ENDCHAR
STARTCHAR 0053
ENCODING 83
SWIDTH 925 0
DWIDTH 37 0
BBX 30 29 3 0
BITMAP
07FFFFC0
0FFFFFE0
1FFFFFF0
3FFFFFF8
7FFFFFFC
F800007C
F800007C
F800007C
F800007C
F8000000
F8000000
F8000000
7FFFFF80
3FFFFFC0
1FFFFFE0
0FFFFFF0
07FFFFFC
0000007C
0000007C
0000007C
F800007C
F800007C
F800007C
F800007C
7FFFFFFC
3FFFFFF8
1FFFFFF0
0FFFFFE0
07FFFFC0
ENDCHAR
STARTCHAR 0054
ENCODING 84
SWIDTH 800 0
DWIDTH 32 0
BBX 28 29 2 0
BITMAP
FFFFFFF0
FFFFFFF0
FFFFFFF0
FFFFFFF0
FFFFFFF0
000F8000
000F8000
000F8000
000F8000
000F8000
000F8000
000F8000
000F8000
000F8000
000F8000
000F8000
000F8000
000F8000
000F8000
000F8000
000F8000
000F8000
000F8000
000F8000
000F8000
000F8000
000F8000
000F8000
000F8000
ENDCHAR
STARTCHAR 0055
ENCODING 85
SWIDTH 925 0
DWIDTH 37 0
BBX 30 29 3 0
BITMAP
F800007C
F800007C
F800007C
F800007C
F800007C
F800007C
F800007C
F800007C
F800007C
F800007C
F800007C
F800007C
F800007C
F800007C
F800007C
F800007C
F800007C
F800007C
F800007C
F800007C
F800007C
F800007C
F800007C
F800007C
7FFFFFFC
3FFFFFF8
1FFFFFF0
0FFFFFE0
07FFFFC0
ENDCHAR
STARTCHAR 0056
ENCODING 86
SWIDTH 800 0
DWIDTH 32 0
BBX 29 29 2 0
BITMAP
F80000F8
F80000F8
F80000F8
F80000F8
F80000F8
F80000F8
F80000F8
F80000F8
F80000F8
F80000F8
F80000F8
F80000F8
F80000F8
F80000F8
F80000F8
F80001F0
7C0003E0
3E0007C0
1F000F80
0F801F00
07C03E00
03E07C00
01F0F800
00F9F000
007FE000
003FC000
001F8000
000F0000
00060000
ENDCHAR
STARTCHAR 0057
ENCODING 87
SWIDTH 950 0
DWIDTH 38 0
BBX 32 29 3 0
BITMAP
F800001F
F800001F
F800001F
F800001F
F800001F
F800001F
F800001F
F800001F
F800001F
F800001F
F800001F
F800001F
F801801F
F803C01F
F807E01F
F80FF01F
F81FF81F
F81FFC1F
F83E7E1F
F87C3F1F
F8F81F9F
F9F00FDF
FBE007FF
FFC003FF
FF8001FF
FF0000FF
7E00007F
3E00003E
1C00001C
ENDCHAR
STARTCHAR 0058
ENCODING 88
SWIDTH 750 0
DWIDTH 30 0
BBX 27 29 2 0
BITMAP
F80003E0
F80003E0
F80003E0
F80003E0
F80007E0
FC000FC0
7E001F80
3F003F00
1F807E00
0FC0FC00
07E1F800
03F3F000
01FFE000
00FFC000
007F8000
00FFC000
01FFE000
03F3F000
07E1F800
0FC0FC00
1F807E00
3F003F00
7E001F80
FC000FC0
F80007E0
F80003E0
F80003E0
F80003E0
F80003E0
ENDCHAR
STARTCHAR 0059
ENCODING 89
SWIDTH 800 0
DWIDTH 32 0
BBX 28 29 2 0
BITMAP
F00000F0
F00000F0
F00000F0
F00001F0
F80003F0
FC0007E0
7E000FC0
3F001F80
1F803F00
0FC07E00
07E0FC00
03F1F800
01FBF000
00FFE000
007FC000
003F8000
001F0000
000F0000
000F0000
000F0000
000F0000
000F0000
000F0000
000F0000
000F0000
000F0000
000F0000
000F0000
000F0000
ENDCHAR
STARTCHAR 005A
ENCODING 90
SWIDTH 800 0
DWIDTH 32 0
BBX 26 29 3 0
BITMAP
FFFFFFC0
FFFFFFC0
FFFFFFC0
FFFFFFC0
FFFFFFC0
00001F80
00003F00
00007E00
0000FC00
0001F800
0003F000
0007E000
000FC000
001F8000
003F0000
007E0000
00FC0000
01F80000
03F00000
07E00000
0FC00000
1F800000
3F000000
7E000000
FFFFFFC0
FFFFFFC0
FFFFFFC0
FFFFFFC0
FFFFFFC0
ENDCHAR
STARTCHAR 005B
ENCODING 91
SWIDTH 350 0
DWIDTH 14 0
BBX 9 39 3 -5
BITMAP
FF80
FF80
FF80
FF80
FF80
F800
F800
F800
F800
F800
F800
F800
F800
F800
F800
F800
F800
F800
F800
F800
F800
F800
F800
F800
F800
F800
F800
F800
F800
F800
F800
F800
F800
F800
FF80
FF80
FF80
FF80
FF80
ENDCHAR
STARTCHAR 005C
ENCODING 92
SWIDTH 725 0
DWIDTH 29 0
BBX 26 29 2 0
BITMAP
F8000000
F8000000
F8000000
F8000000
FC000000
7E000000
3F000000
1F800000
0FC00000
07E00000
03F00000
01F80000
00FC0000
007E0000
003F0000
001F8000
000FC000
0007E000
0003F000
0001F800
0000FC00
00007E00
00003F00
00001F80
00000FC0
000007C0
000007C0
000007C0
000007C0
ENDCHAR
STARTCHAR 005D
ENCODING 93
SWIDTH 350 0
DWIDTH 14 0
BBX 9 39 2 -5
BITMAP
FF80
FF80
FF80
FF80
FF80
0F80
0F80
0F80
0F80
0F80
0F80
0F80
0F80
0F80
0F80
0F80
0F80
0F80
0F80
0F80
0F80
0F80
0F80
0F80
0F80
0F80
0F80
0F80
0F80
0F80
0F80
0F80
0F80
0F80
FF80
FF80
FF80
FF80
FF80
ENDCHAR
STARTCHAR 005E
ENCODING 94
SWIDTH 500 0
DWIDTH 20 0
BBX 14 11 3 18
BITMAP
0300
0780
0FC0
1FE0
3FF0
7CF8
F8FC
F07C
E03C
C01C
800C
ENDCHAR
STARTCHAR 005F
ENCODING 95
SWIDTH 750 0
DWIDTH 30 0
BBX 30 5 0 -5
BITMAP
FFFFFFFC
FFFFFFFC
FFFFFFFC
FFFFFFFC
FFFFFFFC
ENDCHAR
STARTCHAR 0060
ENCODING 96
SWIDTH 825 0
DWIDTH 33 0
BBX 12 10 4 24
BITMAP
F800
FC00
7E00
3F00
1F80
0FC0
07E0
03F0
01F0
00F0
ENDCHAR
STARTCHAR 0061
ENCODING 97
SWIDTH 925 0
DWIDTH 37 0
BBX 30 23 3 0
BITMAP
07FFFE0C
0FFFFF1C
1FFFFFBC
3FFFFFFC
7FFFFFFC
F800007C
F800007C
F800007C
F800007C
F800007C
F800007C
F800007C
F800007C
F800007C
F800007C
F800007C
F800007C
F800007C
7FFFFFFC
3FFFFFFC
1FFFFFBC
0FFFFF1C
07FFFE0C
ENDCHAR
STARTCHAR 0062
ENCODING 98
SWIDTH 925 0
DWIDTH 37 0
BBX 30 32 3 0
BITMAP
F8000000
F8000000
F8000000
F8000000
F8000000
F8000000
F8000000
F8000000
F8000000
F9FFFFC0
FBFFFFE0
FFFFFFF0
FFFFFFF8
FFFFFFFC
F800007C
F800007C
F800007C
F800007C
F800007C
F800007C
F800007C
F800007C
F800007C
F800007C
F800007C
F800007C
F800007C
7FFFFFFC
3FFFFFF8
1FFFFFF0
0FFFFFE0
07FFFFC0
ENDCHAR
STARTCHAR 0063
ENCODING 99
SWIDTH 850 0
DWIDTH 34 0
BBX 27 23 3 0
BITMAP
07FFFFE0
0FFFFFE0
1FFFFFE0
3FFFFFE0
7FFFFFE0
F8000000
F8000000
F8000000
F8000000
F8000000
F8000000
F8000000
F8000000
F8000000
F8000000
F8000000
F8000000
F8000000
7FFFFFE0
3FFFFFE0
1FFFFFE0
0FFFFFE0
07FFFFE0
ENDCHAR
STARTCHAR 0064
ENCODING 100
SWIDTH 925 0
DWIDTH 37 0
BBX 30 32 3 0
BITMAP
0000007C
0000007C
0000007C
0000007C
0000007C
0000007C
0000007C
0000007C
0000007C
07FFFE7C
0FFFFF7C
1FFFFF7C
3FFFFFFC
7FFFFFFC
F800007C
F800007C
F800007C
F800007C
F800007C
F800007C
F800007C
F800007C
F800007C
F800007C
F800007C
F800007C
F800007C
7FFFFFFC
3FFFFFFC
1FFFFFBC
0FFFFF1C
07FFFE0C
ENDCHAR
STARTCHAR 0065
ENCODING 101
SWIDTH 875 0
DWIDTH 35 0
BBX 29 23 3 0
BITMAP
07FFFF80
0FFFFFC0
1FFFFFE0
3FFFFFF0
7FFFFFF8
F80000F8
F80000F8
F80000F8
F80000F8
FFFFFFF8
FFFFFFF8
FFFFFFF8
FFFFFFF8
FFFFFFF8
F8000000
F8000000
F8000000
F8000000
7FFFFFF8
3FFFFFF8
1FFFFFF8
0FFFFFF8
07FFFFF8
ENDCHAR
STARTCHAR 0066
ENCODING 102
SWIDTH 600 0
DWIDTH 24 0
BBX 21 32 2 0
BITMAP
007FF8
00FFF8
01FFF8
03FFF8
07FFF8
07C000
07C000
07C000
07C000
FFFFF8
FFFFF8
FFFFF8
FFFFF8
FFFFF8
07C000
07C000
07C000
07C000
07C000
07C000
07C000
07C000
07C000
07C000
07C000
07C000
07C000
07C000
07C000
07C000
07C000
07C000
ENDCHAR
STARTCHAR 0067
ENCODING 103
SWIDTH 925 0
DWIDTH 37 0
BBX 30 32 3 -9
BITMAP
07FFFE0C
0FFFFF1C
1FFFFFBC
3FFFFFFC
7FFFFFFC
F800007C
F800007C
F800007C
F800007C
F800007C
F800007C
F800007C
F800007C
F800007C
F800007C
F800007C
F800007C
F800007C
7FFFFFFC
3FFFFFFC
1FFFFFBC
0FFFFF3C
07FFFE3C
0000007C
0000007C
0000007C
0000007C
07FFFFFC
07FFFFF8
07FFFFF0
07FFFFE0
07FFFFC0
ENDCHAR
STARTCHAR 0068
ENCODING 104
SWIDTH 875 0
DWIDTH 35 0
BBX 29 32 3 0
BITMAP
F8000000
F8000000
F8000000
F8000000
F8000000
F8000000
F8000000
F8000000
F8000000
F8FFFF80
F9FFFFC0
FBFFFFE0
FFFFFFF0
FFFFFFF8
F80000F8
F80000F8
F80000F8
F80000F8
F80000F8
F80000F8
F80000F8
F80000F8
F80000F8
F80000F8
F80000F8
F80000F8
F80000F8
F80000F8
F80000F8
F80000F8
F80000F8
F80000F8
ENDCHAR
STARTCHAR 0069
ENCODING 105
SWIDTH 300 0
DWIDTH 12 0
BBX 9 32 3 0
BITMAP
F800
F800
F800
F800
F800
0000
0000
0000
0000
F800
F800
F800
F800
F800
F800
F800
F800
F800
F800
F800
F800
F800
F800
F800
F800
F800
F800
7F80
3F80
1F80
0F80
0780
ENDCHAR
STARTCHAR 006A
ENCODING 106
SWIDTH 300 0
DWIDTH 12 0
BBX 14 41 -5 -9
BITMAP
007C
007C
007C
007C
007C
0000
0000
0000
0000
007C
007C
007C
007C
007C
007C
007C
007C
007C
007C
007C
007C
007C
007C
007C
007C
007C
007C
007C
007C
007C
007C
007C
007C
007C
007C
007C
FFFC
FFF8
FFF0
FFE0
FFC0
ENDCHAR
STARTCHAR 006B
ENCODING 107
SWIDTH 800 0
DWIDTH 32 0
BBX 27 32 3 0
BITMAP
F8000000
F8000000
F8000000
F8000000
F8000000
F8000000
F8000000
F8000000
F8000000
F80001E0
F80003E0
F80007E0
F8000FC0
F8001F80
F8003F00
F8007E00
F800FC00
F801F800
FFFFF000
FFFFE000
FFFFC000
FFFFC000
FFFFE000
F803F000
F801F800
F800FC00
F8007E00
F8003F00
F8001F80
F8000FC0
F80007E0
F80003E0
ENDCHAR
STARTCHAR 006C
ENCODING 108
SWIDTH 300 0
DWIDTH 12 0
BBX 9 32 3 0
BITMAP
F800
F800
F800
F800
F800
F800
F800
F800
F800
F800
F800
F800
F800
F800
F800
F800
F800
F800
F800
F800
F800
F800
F800
F800
F800
F800
F800
7F80
3F80
1F80
0F80
0780
ENDCHAR
STARTCHAR 006D
ENCODING 109
SWIDTH 1175 0
DWIDTH 47 0
BBX 41 23 3 0
BITMAP
C1FFE0FFF800
E3FFE1FFFC00
F7FFF3FFFE00
FFFFFFFFFF00
FFFFFFFFFF80
F8003E000F80
F8003E000F80
F8003E000F80
F8003E000F80
F8003E000F80
F8003E000F80
F8003E000F80
F8003E000F80
F8003E000F80
F8003E000F80
F8003E000F80
F8003E000F80
F8003E000F80
F8003E000F80
F8003E000F80
F8003E000F80
F8003E000F80
F8003E000F80
ENDCHAR
STARTCHAR 006E
ENCODING 110
SWIDTH 875 0
DWIDTH 35 0
BBX 29 23 3 0
BITMAP
C1FFFF80
E3FFFFC0
F7FFFFE0
FFFFFFF0
FFFFFFF8
F80000F8
F80000F8
F80000F8
F80000F8
F80000F8
F80000F8
F80000F8
F80000F8
F80000F8
F80000F8
F80000F8
F80000F8
F80000F8
F80000F8
F80000F8
F80000F8
F80000F8
F80000F8
ENDCHAR
STARTCHAR 006F
ENCODING 111
SWIDTH 925 0
DWIDTH 37 0
BBX 30 23 3 0
BITMAP
07FFFFC0
0FFFFFE0
1FFFFFF0
3FFFFFF8
7FFFFFFC
F800007C
F800007C
F800007C
F800007C
F800007C
F800007C
F800007C
F800007C
F800007C
F800007C
F800007C
F800007C
F800007C
7FFFFFFC
3FFFFFF8
1FFFFFF0
0FFFFFE0
07FFFFC0
ENDCHAR
STARTCHAR 0070
ENCODING 112
SWIDTH 925 0
DWIDTH 37 0
BBX 30 32 3 -9
BITMAP
C1FFFFC0
E3FFFFE0
F7FFFFF0
FFFFFFF8
FFFFFFFC
F800007C
F800007C
F800007C
F800007C
F800007C
F800007C
F800007C
F800007C
F800007C
F800007C
F800007C
F800007C
F800007C
FFFFFFFC
FFFFFFF8
FBFFFFF0
F9FFFFE0
F9FFFFC0
F8000000
F8000000
F8000000
F8000000
F8000000
F8000000
F8000000
F8000000
F8000000
ENDCHAR
STARTCHAR 0071
ENCODING 113
SWIDTH 925 0
DWIDTH 37 0
BBX 30 32 3 -9
BITMAP
07FFFFC0
0FFFFFE0
1FFFFFF0
3FFFFFF8
7FFFFFFC
F800007C
F800007C
F800007C
F800007C
F800007C
F800007C
F800007C
F800007C
F800007C
F800007C
F800007C
F800007C
F800007C
7FFFFFFC
3FFFFFFC
1FFFFFFC
0FFFFF7C
07FFFE7C
0000007C
0000007C
0000007C
0000007C
0000007C
0000007C
0000007C
0000007C
0000007C
ENDCHAR
STARTCHAR 0072
ENCODING 114
SWIDTH 575 0
DWIDTH 23 0
BBX 20 23 3 0
BITMAP
C1FFF0
E3FFF0
F7FFF0
FFFFF0
FFFFF0
F80000
F80000
F80000
F80000
F80000
F80000
F80000
F80000
F80000
F80000
F80000
F80000
F80000
F80000
F80000
F80000
F80000
F80000
ENDCHAR
STARTCHAR 0073
ENCODING 115
SWIDTH 850 0
DWIDTH 34 0
BBX 27 23 3 0
BITMAP
07FFFFE0
0FFFFFE0
1FFFFFE0
3FFFFFE0
7FFFFFE0
F8000000
F8000000
F8000000
F8000000
7FFFFC00
3FFFFE00
1FFFFF00
0FFFFF80
07FFFFE0
000003E0
000003E0
000003E0
000003E0
FFFFFFE0
FFFFFFC0
FFFFFF80
FFFFFF00
FFFFFE00
ENDCHAR
STARTCHAR 0074
ENCODING 116
SWIDTH 675 0
DWIDTH 27 0
BBX 24 29 2 0
BITMAP
07C000
07C000
07C000
07C000
07C000
07C000
FFFFFF
FFFFFF
FFFFFF
FFFFFF
FFFFFF
07C000
07C000
07C000
07C000
07C000
07C000
07C000
07C000
07C000
07C000
07C000
07C000
07C000
07FFFF
03FFFF
01FFFF
00FFFF
007FFF
ENDCHAR
STARTCHAR 0075
ENCODING 117
SWIDTH 875 0
DWIDTH 35 0
BBX 29 23 3 0
BITMAP
F80000F8
F80000F8
F80000F8
F80000F8
F80000F8
F80000F8
F80000F8
F80000F8
F80000F8
F80000F8
F80000F8
F80000F8
F80000F8
F80000F8
F80000F8
F80000F8
F80000F8
F80000F8
7FFFFFF8
3FFFFFF8
1FFFFF78
0FFFFE38
07FFFC18
ENDCHAR
STARTCHAR 0076
ENCODING 118
SWIDTH 800 0
DWIDTH 32 0
BBX 29 23 2 0
BITMAP
F80000F8
F80000F8
F80000F8
F80000F8
F80000F8
F80000F8
F80000F8
F80000F8
F80000F8
F80001F0
7C0003E0
3E0007C0
1F000F80
0F801F00
07C03E00
03E07C00
01F0F800
00F9F000
007FE000
003FC000
001F8000
000F0000
00060000
ENDCHAR
STARTCHAR 0077
ENCODING 119
SWIDTH 1175 0
DWIDTH 47 0
BBX 41 23 3 0
BITMAP
F8003E000F80
F8003E000F80
F8003E000F80
F8003E000F80
F8003E000F80
F8003E000F80
F8003E000F80
F8003E000F80
F8003E000F80
F8003E000F80
F8003E000F80
F8003E000F80
F8003E000F80
F8003E000F80
F8003E000F80
F8003E000F80
F8003E000F80
F8003E000F80
7FFFFFFFFF80
3FFFFFFFFF00
1FFFFBFFFE00
0FFFF1FFFC00
07FFE0FFF800
ENDCHAR
STARTCHAR 0078
ENCODING 120
SWIDTH 750 0
DWIDTH 30 0
BBX 27 23 2 0
BITMAP
F00003E0
F80007E0
FC000FC0
7E001F80
3F003F00
1F807E00
0FC0FC00
07E1F800
03F3F000
01FFE000
00FFC000
007F8000
00FFC000
01FFE000
03F3F000
07E1F800
0FC0FC00
1F807E00
3F003F00
7E001F80
FC000FC0
F80007E0
F00003E0
ENDCHAR
STARTCHAR 0079
ENCODING 121
SWIDTH 875 0
DWIDTH 35 0
BBX 29 32 3 -9
BITMAP
F80000F8
F80000F8
F80000F8
F80000F8
F80000F8
F80000F8
F80000F8
F80000F8
F80000F8
F80000F8
F80000F8
F80000F8
F80000F8
F80000F8
F80000F8
F80000F8
F80000F8
F80000F8
7FFFFFF8
3FFFFFF8
1FFFFFF8
0FFFFEF8
07FFFCF8
000000F8
000000F8
000000F8
000000F8
07FFFFF8
07FFFFF0
07FFFFE0
07FFFFC0
07FFFF80
ENDCHAR
STARTCHAR 007A
ENCODING 122
SWIDTH 850 0
DWIDTH 34 0
BBX 27 23 3 0
BITMAP
FFFFFFE0
FFFFFFE0
FFFFFFE0
FFFFFFE0
FFFFFFE0
000003E0
000003E0
000003E0
000003E0
07FFFFE0
0FFFFFC0
1FFFFF80
3FFFFF00
7FFFFC00
F8000000
F8000000
F8000000
F8000000
FFFFFFE0
FFFFFFE0
FFFFFFE0
FFFFFFE0
FFFFFFE0
ENDCHAR
STARTCHAR 007B
ENCODING 123
SWIDTH 425 0
DWIDTH 17 0
BBX 12 39 3 -5
BITMAP
00F0
01F0
03F0
07F0
0FF0
1F00
1F00
1F00
1F00
1F00
1F00
1F00
1F00
1F00
1F00
1F00
3F00
7E00
FC00
F800
FC00
7E00
3F00
1F00
1F00
1F00
1F00
1F00
1F00
1F00
1F00
1F00
1F00
1F00
0FF0
07F0
03F0
01F0
00F0
ENDCHAR
STARTCHAR 007C
ENCODING 124
SWIDTH 275 0
DWIDTH 11 0
BBX 5 30 3 0
BITMAP
F8
F8
F8
F8
F8
F8
F8
F8
F8
F8
F8
F8
F8
F8
F8
F8
F8
F8
F8
F8
F8
F8
F8
F8
F8
F8
F8
F8
F8
F8
ENDCHAR
STARTCHAR 007D
ENCODING 125
SWIDTH 425 0
DWIDTH 17 0
BBX 12 39 2 -5
BITMAP
F000
F800
FC00
FE00
FF00
0F80
0F80
0F80
0F80
0F80
0F80
0F80
0F80
0F80
0F80
0F80
0F80
07C0
03E0
03F0
03E0
07C0
0F80
0F80
0F80
0F80
0F80
0F80
0F80
0F80
0F80
0F80
0F80
0F80
FF00
FE00
FC00
F800
F000
ENDCHAR
STARTCHAR 007E
ENCODING 126
SWIDTH 825 0
DWIDTH 33 0
BBX 24 9 4 11
BITMAP
0FE001
1FF003
3FF807
7E7C0F
FC7E1F
F83F3E
F01FFC
E00FF8
C007F0
ENDCHAR
STARTCHAR 00A0
ENCODING 160
SWIDTH 300 0
DWIDTH 12 0
BBX 0 0 0 0
BITMAP
ENDCHAR
STARTCHAR 00A1
ENCODING 161
SWIDTH 275 0
DWIDTH 11 0
BBX 5 29 3 -5
BITMAP
F8
F8
F8
F8
F8
00
00
00
00
F8
F8
F8
F8
F8
F8
F8
F8
F8
F8
F8
F8
F8
F8
F8
F8
F8
F8
F8
F8
ENDCHAR
STARTCHAR 00A2
ENCODING 162
SWIDTH 875 0
DWIDTH 35 0
BBX 28 32 3 -2
BITMAP
000F0000
000F0000
000F0000
000F0000
0FFFFF00
1FFFFF80
3FFFFFC0
7FFFFFE0
FFFFFFF0
F00000F0
F00000F0
F00000F0
F0000000
F0000000
F0000000
F0000000
F0000000
F0000000
F0000000
F00000F0
F00000F0
F00000F0
FFFFFFF0
7FFFFFE0
3FFFFFC0
1FFFFF80
0FFFFF00
000F0000
000F0000
000F0000
000F0000
000F0000
ENDCHAR
STARTCHAR 00A3
ENCODING 163
SWIDTH 750 0
DWIDTH 30 0
BBX 27 29 3 0
BITMAP
003FFE00
007FFE00
00FFFE00
01FFFE00
03FFFE00
07C00000
07C00000
07C00000
07C00000
07C00000
07C00000
07C00000
FFFFC000
FFFFC000
FFFFC000
FFFFC000
FFFFC000
07C00000
07C00000
07C00000
07C00000
07C00000
07C00000
07C00000
FFFFFFE0
FFFFFFE0
FFFFFFE0
FFFFFFE0
FFFFFFE0
ENDCHAR
STARTCHAR 00A4
ENCODING 164
SWIDTH 950 0
DWIDTH 38 0
BBX 34 29 1 0
BITMAP
01FFFFFC00
03FFFFFE00
07FFFFFF00
0FFFFFFF80
1FFFFFFFC0
1F000007C0
1F000007C0
1F000007C0
1F000007C0
FFFF800000
FFFF800000
FFFF800000
FFFF800000
FFFF800000
1F00000000
FFFF800000
FFFF800000
FFFF800000
FFFF800000
FFFF800000
1F000007C0
1F000007C0
1F000007C0
1F000007C0
1FFFFFFFC0
0FFFFFFF80
07FFFFFF00
03FFFFFE00
01FFFFFC00
ENDCHAR
STARTCHAR 00A5
ENCODING 165
SWIDTH 875 0
DWIDTH 35 0
BBX 29 29 3 0
BITMAP
F0000038
F8000078
FC0000F8
7E0001F8
3F0003F0
1F8007E0
0FC00FC0
07E01F80
03F03F00
01F87E00
00FCFC00
007FF800
003FF000
001FE000
000FC000
000F8000
3FFFFFE0
3FFFFFE0
3FFFFFE0
3FFFFFE0
3FFFFFE0
000F8000
000F8000
000F8000
000F8000
000F8000
000F8000
000F8000
000F8000
ENDCHAR
STARTCHAR 00A6
ENCODING 166
SWIDTH 275 0
DWIDTH 11 0
BBX 5 29 3 0
BITMAP
F8
F8
F8
F8
F8
F8
F8
F8
F8
F8
F8
F8
00
00
00
00
00
F8
F8
F8
F8
F8
F8
F8
F8
F8
F8
F8
F8
ENDCHAR
STARTCHAR 00A7
ENCODING 167
SWIDTH 925 0
DWIDTH 37 0
BBX 30 32 3 -2
BITMAP
07FFFF80
0FFFFF80
1FFFFF80
3FFFFF80
7FFFFF80
F8000000
F8000000
F8000000
F8000000
7FFFFFC0
7FFFFFE0
3FFFFFF0
7FFFFFF8
FFFFFFFC
F800007C
F800007C
F800007C
7FFFFFFC
3FFFFFF8
1FFFFFF0
0FFFFFF8
07FFFFFC
0000007C
0000007C
0000007C
0000007C
0000007C
07FFFFFC
07FFFFF8
07FFFFF0
07FFFFE0
07FFFFC0
ENDCHAR
STARTCHAR 00A8
ENCODING 168
SWIDTH 750 0
DWIDTH 30 0
BBX 15 5 5 30
BITMAP
F83E
F83E
F83E
F83E
F83E
ENDCHAR
STARTCHAR 00A9
ENCODING 169
SWIDTH 925 0
DWIDTH 37 0
BBX 30 29 3 0
BITMAP
07FFFFC0
0FFFFFE0
1FFFFFF0
3FFFFFF8
7FFFFFFC
F800007C
F800007C
F800007C
F807FE7C
F80FFE7C
F81FFE7C
F83FFE7C
F87FFE7C
F8F8007C
F8F8007C
F8F8007C
F87FFE7C
F83FFE7C
F81FFE7C
F80FFE7C
F807FE7C
F800007C
F800007C
F800007C
7FFFFFFC
3FFFFFF8
1FFFFFF0
0FFFFFE0
07FFFFC0
ENDCHAR
STARTCHAR 00AA
ENCODING 170
SWIDTH 925 0
DWIDTH 37 0
BBX 30 23 3 6
BITMAP
07FFFE0C
0FFFFF1C
1FFFFFBC
3FFFFFFC
7FFFFFFC
F800007C
F800007C
F800007C
F800007C
F800007C
F800007C
F800007C
F800007C
F800007C
F800007C
F800007C
F800007C
F800007C
7FFFFFFC
3FFFFFFC
1FFFFFBC
0FFFFF1C
07FFFE0C
ENDCHAR
STARTCHAR 00AB
ENCODING 171
SWIDTH 675 0
DWIDTH 27 0
BBX 21 19 3 5
BITMAP
007C00
00FC00
01FC00
03F838
0FF078
1FE0F8
3FC1F8
7F83F0
FF07E0
FE0FC0
FF07E0
7F83F0
3FC1F8
1FE0F8
0FF078
03F838
01FC00
00FC00
007C00
ENDCHAR
STARTCHAR 00AC
ENCODING 172
SWIDTH 600 0
DWIDTH 24 0
BBX 18 9 3 8
BITMAP
FFFFC0
FFFFC0
FFFFC0
FFFFC0
FFFFC0
0007C0
0007C0
0007C0
0007C0
ENDCHAR
STARTCHAR 00AD
ENCODING 173
SWIDTH 500 0
DWIDTH 20 0
BBX 14 5 3 12
BITMAP
FFFC
FFFC
FFFC
FFFC
FFFC
ENDCHAR
STARTCHAR 00AE
ENCODING 174
SWIDTH 925 0
DWIDTH 37 0
BBX 30 29 3 0
BITMAP
07FFFFC0
0FFFFFE0
1FFFFFF0
3FFFFFF8
7FFFFFFC
F800007C
F800007C
F800007C
F8FFF07C
F8FFF87C
F8FFFC7C
F8FFFE7C
F8F83E7C
F8FFFE7C
F8FFFC7C
F8FFF87C
F8FFF07C
F8FBF07C
F8F9F87C
F8F8FC7C
F8F87E7C
F800007C
F800007C
F800007C
7FFFFFFC
3FFFFFF8
1FFFFFF0
0FFFFFE0
07FFFFC0
ENDCHAR
STARTCHAR 00AF
ENCODING 175
SWIDTH 775 0
DWIDTH 31 0
BBX 14 5 4 29
BITMAP
FFFC
FFFC
FFFC
FFFC
FFFC
ENDCHAR
STARTCHAR 00B0
ENCODING 176
SWIDTH 500 0
DWIDTH 20 0
BBX 14 14 3 15
BITMAP
07C0
0FE0
1FF0
3FF8
7FFC
F87C
F87C
F87C
F87C
7FFC
3FF8
1FF0
0FE0
07C0
ENDCHAR
STARTCHAR 00B1
ENCODING 177
SWIDTH 575 0
DWIDTH 23 0
BBX 17 23 3 0
BITMAP
03E000
03E000
03E000
03E000
03E000
03E000
FFFF80
FFFF80
FFFF80
FFFF80
FFFF80
03E000
03E000
03E000
03E000
03E000
03E000
000000
FFFF80
FFFF80
FFFF80
FFFF80
FFFF80
ENDCHAR
STARTCHAR 00B4
ENCODING 180
SWIDTH 825 0
DWIDTH 33 0
BBX 12 10 4 24
BITMAP
00F0
01F0
03E0
07E0
0FC0
1F80
3F00
7E00
FC00
F800
ENDCHAR
STARTCHAR 00B5
ENCODING 181
SWIDTH 925 0
DWIDTH 37 0
BBX 30 32 3 -9
BITMAP
F800007C
F800007C
F800007C
F800007C
F800007C
F800007C
F800007C
F800007C
F800007C
F800007C
F800007C
F800007C
F800007C
F800007C
F800007C
F800007C
F800007C
F800007C
FFFFFFFC
FFFFFFFC
FBFFFFBC
F9FFFF1C
F8FFFE0C
F8000000
F8000000
F8000000
F8000000
F8000000
F8000000
F8000000
F8000000
F8000000
ENDCHAR
STARTCHAR 00B6
ENCODING 182
SWIDTH 725 0
DWIDTH 29 0
BBX 23 29 3 0
BITMAP
07FFFE
0FFFFE
1FFFFE
3FFFFE
7FFFFE
F87C3E
F87C3E
F87C3E
7FFFFE
3FFFFE
1FFFFE
0FFFFE
07FFFE
007C3E
007C3E
007C3E
007C3E
007C3E
007C3E
007C3E
007C3E
007C3E
007C3E
007C3E
007C3E
007C3E
007C3E
007C3E
007C3E
ENDCHAR
STARTCHAR 00B7
ENCODING 183
SWIDTH 275 0
DWIDTH 11 0
BBX 5 5 3 12
BITMAP
F8
F8
F8
F8
F8
ENDCHAR
STARTCHAR 00B8
ENCODING 184
SWIDTH 925 0
DWIDTH 37 0
BBX 12 11 5 -11
BITMAP
03C0
03E0
03E0
01F0
00F0
00F0
F1F0
FFF0
FFE0
FFC0
7FC0
ENDCHAR
STARTCHAR 00BA
ENCODING 186
SWIDTH 925 0
DWIDTH 37 0
BBX 30 23 3 6
BITMAP
07FFFFC0
0FFFFFE0
1FFFFFF0
3FFFFFF8
7FFFFFFC
F800007C
F800007C
F800007C
F800007C
F800007C
F800007C
F800007C
F800007C
F800007C
F800007C
F800007C
F800007C
F800007C
7FFFFFFC
3FFFFFF8
1FFFFFF0
0FFFFFE0
07FFFFC0
ENDCHAR
STARTCHAR 00BB
ENCODING 187
SWIDTH 675 0
DWIDTH 27 0
BBX 21 19 3 5
BITMAP
00F800
00FC00
00FE00
F07F00
F83F80
FC1FC0
7E0FE0
3F07F0
1F83F8
0F81F8
1F83F8
3F07F0
7E0FE0
FC1FC0
F83F80
F07F00
00FE00
00FC00
00F800
ENDCHAR
STARTCHAR 00BF
ENCODING 191
SWIDTH 675 0
DWIDTH 27 0
BBX 21 29 5 -5
BITMAP
000F80
000F80
000F80
000F80
000F80
000000
000000
000000
000000
000F80
000F80
0FFF80
1FFF00
3FFE00
7FFC00
FFF800
F80000
F80000
F80000
F80000
F80000
F80000
F80000
F80000
FFFFF8
7FFFF8
3FFFF8
1FFFF8
0FFFF8
ENDCHAR
STARTCHAR 00C0
ENCODING 192
SWIDTH 925 0
DWIDTH 37 0
BBX 30 40 3 0
BITMAP
01F00000
01F80000
00FC0000
007E0000
003F0000
001F8000
000FC000
0007E000
0003E000
0001E000
00000000
00078000
000FC000
001FE000
003FF000
007EF800
00FCFC00
01F87E00
03F03F00
07E01F80
0FC00FC0
1F8007E0
3F0003F0
7E0001F8
FC0000FC
F800007C
F800007C
FFFFFFFC
FFFFFFFC
FFFFFFFC
FFFFFFFC
FFFFFFFC
F800007C
F800007C
F800007C
F800007C
F800007C
F800007C
F800007C
F800007C
ENDCHAR
STARTCHAR 00C1
ENCODING 193
SWIDTH 925 0
DWIDTH 37 0
BBX 30 40 3 0
BITMAP
00000F00
00001F00
00003E00
00007C00
0000FC00
0001F800
0003F000
0007E000
000FC000
000F8000
00000000
00078000
000FC000
001FE000
003FF000
007EF800
00FCFC00
01F87E00
03F03F00
07E01F80
0FC00FC0
1F8007E0
3F0003F0
7E0001F8
FC0000FC
F800007C
F800007C
FFFFFFFC
FFFFFFFC
FFFFFFFC
FFFFFFFC
FFFFFFFC
F800007C
F800007C
F800007C
F800007C
F800007C
F800007C
F800007C
F800007C
ENDCHAR
STARTCHAR 00C2
ENCODING 194
SWIDTH 925 0
DWIDTH 37 0
BBX 30 38 3 0
BITMAP
00078000
000FC000
001FE000
003FF000
007FF800
007CF800
00787800
00703800
00000000
00078000
000FC000
001FE000
003FF000
007EF800
00FCFC00
01F87E00
03F03F00
07E01F80
0FC00FC0
1F8007E0
3F0003F0
7E0001F8
FC0000FC
F800007C
F800007C
FFFFFFFC
FFFFFFFC
FFFFFFFC
FFFFFFFC
FFFFFFFC
F800007C
F800007C
F800007C
F800007C
F800007C
F800007C
F800007C
F800007C
ENDCHAR
STARTCHAR 00C3
ENCODING 195
SWIDTH 925 0
DWIDTH 37 0
BBX 30 40 3 0
BITMAP
01F80100
03FC0300
07FC0700
0FFE0F00
1F9F1F00
1F0FBF00
1E07FE00
1C03FC00
1801F800
1001F000
00000000
00078000
000FC000
001FE000
003FF000
007EF800
00FCFC00
01F87E00
03F03F00
07E01F80
0FC00FC0
1F8007E0
3F0003F0
7E0001F8
FC0000FC
F800007C
F800007C
FFFFFFFC
FFFFFFFC
FFFFFFFC
FFFFFFFC
FFFFFFFC
F800007C
F800007C
F800007C
F800007C
F800007C
F800007C
F800007C
F800007C
ENDCHAR
STARTCHAR 00C4
ENCODING 196
SWIDTH 925 0
DWIDTH 37 0
BBX 30 35 3 0
BITMAP
01F07C00
01F07C00
01F07C00
01F07C00
01F07C00
00000000
00078000
000FC000
001FE000
003FF000
007EF800
00FCFC00
01F87E00
03F03F00
07E01F80
0FC00FC0
1F8007E0
3F0003F0
7E0001F8
FC0000FC
F800007C
F800007C
FFFFFFFC
FFFFFFFC
FFFFFFFC
FFFFFFFC
FFFFFFFC
F800007C
F800007C
F800007C
F800007C
F800007C
F800007C
F800007C
F800007C
ENDCHAR
STARTCHAR 00C5
ENCODING 197
SWIDTH 925 0
DWIDTH 37 0
BBX 30 43 3 0
BITMAP
0007F000
000FF800
001FFC00
003F7E00
007E1F00
007C0F00
00780700
00780F00
007C1F00
007E3F00
003F7E00
001FFC00
000FF800
0007F000
00078000
000FC000
001FE000
003FF000
007EF800
00FCFC00
01F87E00
03F03F00
07E01F80
0FC00FC0
1F8007E0
3F0003F0
7E0001F8
FC0000FC
F800007C
F800007C
FFFFFFFC
FFFFFFFC
FFFFFFFC
FFFFFFFC
FFFFFFFC
F800007C
F800007C
F800007C
F800007C
F800007C
F800007C
F800007C
F800007C
ENDCHAR
STARTCHAR 00C6
ENCODING 198
SWIDTH 1150 0
DWIDTH 46 0
BBX 40 29 3 0
BITMAP
0001FFFFFF
0003FFFFFF
0007FFFFFF
000FFFFFFF
001FFFFFFF
003E3E0000
007C3E0000
00F83E0000
01F03E0000
03E03E0000
07C03E0000
0F803E0000
1F003FFFFF
3E003FFFFF
7C003FFFFF
FC003FFFFF
F8003FFFFF
FFFFFE0000
FFFFFE0000
FFFFFE0000
FFFFFE0000
FFFFFE0000
F8003E0000
F8003E0000
F8003FFFFF
F8003FFFFF
F8003FFFFF
F8003FFFFF
F8003FFFFF
ENDCHAR
STARTCHAR 00C7
ENCODING 199
SWIDTH 925 0
DWIDTH 37 0
BBX 30 40 3 -11
BITMAP
07FFFFC0
0FFFFFE0
1FFFFFF0
3FFFFFF8
7FFFFFFC
F800007C
F800007C
F800007C
F800007C
F8000000
F8000000
F8000000
F8000000
F8000000
F8000000
F8000000
F8000000
F8000000
F8000000
F8000000
F800007C
F800007C
F800007C
F800007C
7FFFFFFC
3FFFFFF8
1FFFFFF0
0FFFFFE0
07FFFFC0
0001C000
0001E000
0001F000
0000F800
00007800
00007800
00787800
007FF800
007FF000
007FE000
003FE000
ENDCHAR
STARTCHAR 00C8
ENCODING 200
SWIDTH 850 0
DWIDTH 34 0
BBX 27 40 3 0
BITMAP
007C0000
007E0000
003F0000
001F8000
000FC000
0007E000
0003F000
0001F800
0000F800
00007800
00000000
FFFFFFE0
FFFFFFE0
FFFFFFE0
FFFFFFE0
FFFFFFE0
F8000000
F8000000
F8000000
F8000000
F8000000
F8000000
F8000000
FFFFFFE0
FFFFFFE0
FFFFFFE0
FFFFFFE0
FFFFFFE0
F8000000
F8000000
F8000000
F8000000
F8000000
F8000000
F8000000
FFFFFFE0
FFFFFFE0
FFFFFFE0
FFFFFFE0
FFFFFFE0
ENDCHAR
STARTCHAR 00C9
ENCODING 201
SWIDTH 850 0
DWIDTH 34 0
BBX 27 40 3 0
BITMAP
00000F00
00001F00
00003E00
00007C00
0000FC00
0001F800
0003F000
0007E000
000FC000
000F8000
00000000
FFFFFFE0
FFFFFFE0
FFFFFFE0
FFFFFFE0
FFFFFFE0
F8000000
F8000000
F8000000
F8000000
F8000000
F8000000
F8000000
FFFFFFE0
FFFFFFE0
FFFFFFE0
FFFFFFE0
FFFFFFE0
F8000000
F8000000
F8000000
F8000000
F8000000
F8000000
F8000000
FFFFFFE0
FFFFFFE0
FFFFFFE0
FFFFFFE0
FFFFFFE0
ENDCHAR
STARTCHAR 00CA
ENCODING 202
SWIDTH 850 0
DWIDTH 34 0
BBX 27 38 3 0
BITMAP
000F0000
001F8000
003FC000
007FE000
00FFF000
00F9F000
00F0F000
00E07000
00000000
FFFFFFE0
FFFFFFE0
FFFFFFE0
FFFFFFE0
FFFFFFE0
F8000000
F8000000
F8000000
F8000000
F8000000
F8000000
F8000000
FFFFFFE0
FFFFFFE0
FFFFFFE0
FFFFFFE0
FFFFFFE0
F8000000
F8000000
F8000000
F8000000
F8000000
F8000000
F8000000
FFFFFFE0
FFFFFFE0
FFFFFFE0
FFFFFFE0
FFFFFFE0
ENDCHAR
STARTCHAR 00CB
ENCODING 203
SWIDTH 850 0
DWIDTH 34 0
BBX 27 35 3 0
BITMAP
03E0F800
03E0F800
03E0F800
03E0F800
03E0F800
00000000
FFFFFFE0
FFFFFFE0
FFFFFFE0
FFFFFFE0
FFFFFFE0
F8000000
F8000000
F8000000
F8000000
F8000000
F8000000
F8000000
FFFFFFE0
FFFFFFE0
FFFFFFE0
FFFFFFE0
FFFFFFE0
F8000000
F8000000
F8000000
F8000000
F8000000
F8000000
F8000000
FFFFFFE0
FFFFFFE0
FFFFFFE0
FFFFFFE0
FFFFFFE0
ENDCHAR
STARTCHAR 00CC
ENCODING 204
SWIDTH 575 0
DWIDTH 23 0
BBX 17 40 1 0
BITMAP
1F0000
1F8000
0FC000
07E000
03F000
01F800
00FC00
007E00
003E00
001E00
000000
FFFF80
FFFF80
FFFF80
FFFF80
FFFF80
03E000
03E000
03E000
03E000
03E000
03E000
03E000
03E000
03E000
03E000
03E000
03E000
03E000
03E000
03E000
03E000
03E000
03E000
03E000
FFFF80
FFFF80
FFFF80
FFFF80
FFFF80
ENDCHAR
STARTCHAR 00CD
ENCODING 205
SWIDTH 575 0
DWIDTH 23 0
BBX 18 40 1 0
BITMAP
0003C0
0007C0
000F80
001F00
003F00
007E00
00FC00
01F800
03F000
03E000
000000
FFFF80
FFFF80
FFFF80
FFFF80
FFFF80
03E000
03E000
03E000
03E000
03E000
03E000
03E000
03E000
03E000
03E000
03E000
03E000
03E000
03E000
03E000
03E000
03E000
03E000
03E000
FFFF80
FFFF80
FFFF80
FFFF80
FFFF80
ENDCHAR
STARTCHAR 00CE
ENCODING 206
SWIDTH 575 0
DWIDTH 23 0
BBX 17 38 1 0
BITMAP
007800
00FC00
01FE00
03FF00
07FF80
07CF80
078780
070380
000000
FFFF80
FFFF80
FFFF80
FFFF80
FFFF80
03E000
03E000
03E000
03E000
03E000
03E000
03E000
03E000
03E000
03E000
03E000
03E000
03E000
03E000
03E000
03E000
03E000
03E000
03E000
FFFF80
FFFF80
FFFF80
FFFF80
FFFF80
ENDCHAR
STARTCHAR 00CF
ENCODING 207
SWIDTH 575 0
DWIDTH 23 0
BBX 18 35 1 0
BITMAP
1F07C0
1F07C0
1F07C0
1F07C0
1F07C0
000000
FFFF80
FFFF80
FFFF80
FFFF80
FFFF80
03E000
03E000
03E000
03E000
03E000
03E000
03E000
03E000
03E000
03E000
03E000
03E000
03E000
03E000
03E000
03E000
03E000
03E000
03E000
FFFF80
FFFF80
FFFF80
FFFF80
FFFF80
ENDCHAR
STARTCHAR 00D0
ENCODING 208
SWIDTH 950 0
DWIDTH 38 0
BBX 34 29 1 0
BITMAP
1FFFFFFC00
1FFFFFFE00
1FFFFFFF00
1FFFFFFF80
1FFFFFFFC0
1F000007C0
1F000007C0
1F000007C0
1F000007C0
1F000007C0
1F000007C0
1F000007C0
FFF00007C0
FFF00007C0
FFF00007C0
FFF00007C0
FFF00007C0
1F000007C0
1F000007C0
1F000007C0
1F000007C0
1F000007C0
1F000007C0
1F000007C0
1FFFFFFFC0
1FFFFFFF80
1FFFFFFF00
1FFFFFFE00
1FFFFFFC00
ENDCHAR
STARTCHAR 00D1
ENCODING 209
SWIDTH 950 0
DWIDTH 38 0
BBX 32 40 3 0
BITMAP
007E0040
00FF00C0
01FF01C0
03FF83C0
07E7C7C0
07C3EFC0
0781FF80
0700FF00
06007E00
04007C00
00000000
F800001F
FC00001F
FE00001F
FF00001F
FF80001F
FFC0001F
FFE0001F
FBF0001F
F9F8001F
F8FC001F
F87E001F
F83F001F
F81F801F
F80FC01F
F807E01F
F803F01F
F801F81F
F800F81F
F8007C1F
F8003E1F
F8001F1F
F8000F9F
F80007DF
F80003FF
F80001FF
F80000FF
F800007F
F800003F
F800001F
ENDCHAR
STARTCHAR 00D2
ENCODING 210
SWIDTH 925 0
DWIDTH 37 0
BBX 30 40 3 0
BITMAP
01F00000
01F80000
00FC0000
007E0000
003F0000
001F8000
000FC000
0007E000
0003E000
0001E000
00000000
0FFFFFC0
1FFFFFE0
3FFFFFF0
7FFFFFF8
FFFFFFFC
F800007C
F800007C
F800007C
F800007C
F800007C
F800007C
F800007C
F800007C
F800007C
F800007C
F800007C
F800007C
F800007C
F800007C
F800007C
F800007C
F800007C
F800007C
F800007C
FFFFFFFC
7FFFFFF8
3FFFFFF0
1FFFFFE0
0FFFFFC0
ENDCHAR
STARTCHAR 00D3
ENCODING 211
SWIDTH 925 0
DWIDTH 37 0
BBX 30 40 3 0
BITMAP
00000F00
00001F00
00003E00
00007C00
0000FC00
0001F800
0003F000
0007E000
000FC000
000F8000
00000000
0FFFFFC0
1FFFFFE0
3FFFFFF0
7FFFFFF8
FFFFFFFC
F800007C
F800007C
F800007C
F800007C
F800007C
F800007C
F800007C
F800007C
F800007C
F800007C
F800007C
F800007C
F800007C
F800007C
F800007C
F800007C
F800007C
F800007C
F800007C
FFFFFFFC
7FFFFFF8
3FFFFFF0
1FFFFFE0
0FFFFFC0
ENDCHAR
STARTCHAR 00D4
ENCODING 212
SWIDTH 925 0
DWIDTH 37 0
BBX 30 38 3 0
BITMAP
00078000
000FC000
001FE000
003FF000
007FF800
007CF800
00787800
00703800
00000000
0FFFFFC0
1FFFFFE0
3FFFFFF0
7FFFFFF8
FFFFFFFC
F800007C
F800007C
F800007C
F800007C
F800007C
F800007C
F800007C
F800007C
F800007C
F800007C
F800007C
F800007C
F800007C
F800007C
F800007C
F800007C
F800007C
F800007C
F800007C
FFFFFFFC
7FFFFFF8
3FFFFFF0
1FFFFFE0
0FFFFFC0
ENDCHAR
STARTCHAR 00D5
ENCODING 213
SWIDTH 925 0
DWIDTH 37 0
BBX 30 40 3 0
BITMAP
007E0040
00FF00C0
01FF01C0
03FF83C0
07E7C7C0
07C3EFC0
0781FF80
0700FF00
06007E00
04007C00
00000000
0FFFFFC0
1FFFFFE0
3FFFFFF0
7FFFFFF8
FFFFFFFC
F800007C
F800007C
F800007C
F800007C
F800007C
F800007C
F800007C
F800007C
F800007C
F800007C
F800007C
F800007C
F800007C
F800007C
F800007C
F800007C
F800007C
F800007C
F800007C
FFFFFFFC
7FFFFFF8
3FFFFFF0
1FFFFFE0
0FFFFFC0
ENDCHAR
STARTCHAR 00D6
ENCODING 214
SWIDTH 925 0
DWIDTH 37 0
BBX 30 35 3 0
BITMAP
01F07C00
01F07C00
01F07C00
01F07C00
01F07C00
00000000
0FFFFFC0
1FFFFFE0
3FFFFFF0
7FFFFFF8
FFFFFFFC
F800007C
F800007C
F800007C
F800007C
F800007C
F800007C
F800007C
F800007C
F800007C
F800007C
F800007C
F800007C
F800007C
F800007C
F800007C
F800007C
F800007C
F800007C
F800007C
FFFFFFFC
7FFFFFF8
3FFFFFF0
1FFFFFE0
0FFFFFC0
ENDCHAR
STARTCHAR 00D7
ENCODING 215
SWIDTH 650 0
DWIDTH 26 0
BBX 20 19 3 5
BITMAP
F801F0
FC03F0
FE07F0
7F0FE0
3F9FC0
1FFF80
0FFF00
07FE00
03FC00
03FC00
0FFE00
1FFF00
3FFF80
7F9FC0
FF0FE0
FE07F0
FC03F0
F001F0
E000F0
ENDCHAR
STARTCHAR 00D8
ENCODING 216
SWIDTH 925 0
DWIDTH 37 0
BBX 30 29 3 0
BITMAP
07FFFFC0
0FFFFFE0
1FFFFFF0
3FFFFFF8
7FFFFFFC
F80007FC
F8000FFC
F8001FFC
F8003FBC
F8007F3C
F800FE3C
F801FC3C
F803F83C
F807F03C
F80FE03C
F81FC07C
F83F807C
F87F007C
F8FE007C
F9FC007C
FBF8007C
FFF0007C
FFE0007C
FFC0007C
7FFFFFFC
3FFFFFF8
1FFFFFF0
0FFFFFE0
07FFFFC0
ENDCHAR
STARTCHAR 00D9
ENCODING 217
SWIDTH 925 0
DWIDTH 37 0
BBX 30 40 3 0
BITMAP
01F00000
01F80000
00FC0000
007E0000
003F0000
001F8000
000FC000
0007E000
0003E000
0001E000
00000000
F800007C
F800007C
F800007C
F800007C
F800007C
F800007C
F800007C
F800007C
F800007C
F800007C
F800007C
F800007C
F800007C
F800007C
F800007C
F800007C
F800007C
F800007C
F800007C
F800007C
F800007C
F800007C
F800007C
F800007C
FFFFFFFC
7FFFFFF8
3FFFFFF0
1FFFFFE0
0FFFFFC0
ENDCHAR
STARTCHAR 00DA
ENCODING 218
SWIDTH 925 0
DWIDTH 37 0
BBX 30 40 3 0
BITMAP
00000F00
00001F00
00003E00
00007C00
0000FC00
0001F800
0003F000
0007E000
000FC000
000F8000
00000000
F800007C
F800007C
F800007C
F800007C
F800007C
F800007C
F800007C
F800007C
F800007C
F800007C
F800007C
F800007C
F800007C
F800007C
F800007C
F800007C
F800007C
F800007C
F800007C
F800007C
F800007C
F800007C
F800007C
F800007C
FFFFFFFC
7FFFFFF8
3FFFFFF0
1FFFFFE0
0FFFFFC0
ENDCHAR
STARTCHAR 00DB
ENCODING 219
SWIDTH 925 0
DWIDTH 37 0
BBX 30 38 3 0
BITMAP
00078000
000FC000
001FE000
003FF000
007FF800
007CF800
00787800
00703800
00000000
F800007C
F800007C
F800007C
F800007C
F800007C
F800007C
F800007C
F800007C
F800007C
F800007C
F800007C
F800007C
F800007C
F800007C
F800007C
F800007C
F800007C
F800007C
F800007C
F800007C
F800007C
F800007C
F800007C
F800007C
FFFFFFFC
7FFFFFF8
3FFFFFF0
1FFFFFE0
0FFFFFC0
ENDCHAR
STARTCHAR 00DC
ENCODING 220
SWIDTH 925 0
DWIDTH 37 0
BBX 30 35 3 0
BITMAP
01F07C00
01F07C00
01F07C00
01F07C00
01F07C00
00000000
F800007C
F800007C
F800007C
F800007C
F800007C
F800007C
F800007C
F800007C
F800007C
F800007C
F800007C
F800007C
F800007C
F800007C
F800007C
F800007C
F800007C
F800007C
F800007C
F800007C
F800007C
F800007C
F800007C
F800007C
FFFFFFFC
7FFFFFF8
3FFFFFF0
1FFFFFE0
0FFFFFC0
ENDCHAR
STARTCHAR 00DD
ENCODING 221
SWIDTH 875 0
DWIDTH 35 0
BBX 28 42 1 0
BITMAP
00000F00
00001F00
00003E00
00007C00
0000FC00
0001F800
0003F000
0007E000
000FC000
000F8000
00000000
00000000
00000000
F00000F0
F00000F0
F00000F0
F80001F0
FC0003F0
7E0007E0
3E0007C0
1F000F80
0F801F00
07C03E00
03E07C00
01F0F800
00F9F000
007FE000
003FC000
001F8000
000F0000
000F0000
000F0000
000F0000
000F0000
000F0000
000F0000
000F0000
000F0000
000F0000
000F0000
000F0000
000F0000
ENDCHAR
STARTCHAR 00DE
ENCODING 222
SWIDTH 925 0
DWIDTH 37 0
BBX 30 29 3 0
BITMAP
F8000000
F8000000
F8000000
F8000000
F8000000
F8000000
FFFFFFC0
FFFFFFE0
FFFFFFF0
FFFFFFF8
FFFFFFFC
F800007C
F800007C
F800007C
F800007C
F800007C
F800007C
F800007C
F800007C
FFFFFFFC
FFFFFFF8
FFFFFFF0
FBFFFFE0
F9FFFFC0
F8000000
F8000000
F8000000
F8000000
F8000000
ENDCHAR
STARTCHAR 00DF
ENCODING 223
SWIDTH 925 0
DWIDTH 37 0
BBX 30 34 3 -5
BITMAP
07FFFFC0
0FFFFFE0
1FFFFFF0
3FFFFFF8
7FFFFFFC
F800007C
F800007C
F800003C
F800003C
F800003C
F800007C
F80000F8
F87FFFF8
F87FFFF0
F87FFFE0
F87FFFF0
F87FFFF0
F80000F8
F800007C
F800003C
F800003C
F800003C
F800007C
F800007C
F87FFFFC
F87FFFF8
F87FFFF0
F87FFFE0
F87FFFC0
F8000000
F8000000
F8000000
F8000000
F8000000
ENDCHAR
STARTCHAR 00E0
ENCODING 224
SWIDTH 925 0
DWIDTH 37 0
BBX 30 34 3 0
BITMAP
01F00000
01F80000
00FC0000
007E0000
003F0000
001F8000
000FC000
0007E000
0003E000
0001E000
00000000
0FFFFE0C
1FFFFF1C
3FFFFFBC
7FFFFFFC
FFFFFFFC
F800007C
F800007C
F800007C
F800007C
F800007C
F800007C
F800007C
F800007C
F800007C
F800007C
F800007C
F800007C
F800007C
FFFFFFFC
7FFFFFFC
3FFFFFBC
1FFFFF1C
0FFFFE0C
ENDCHAR
STARTCHAR 00E1
ENCODING 225
SWIDTH 925 0
DWIDTH 37 0
BBX 30 34 3 0
BITMAP
00000F00
00001F00
00003E00
00007C00
0000FC00
0001F800
0003F000
0007E000
000FC000
000F8000
00000000
0FFFFE0C
1FFFFF1C
3FFFFFBC
7FFFFFFC
FFFFFFFC
F800007C
F800007C
F800007C
F800007C
F800007C
F800007C
F800007C
F800007C
F800007C
F800007C
F800007C
F800007C
F800007C
FFFFFFFC
7FFFFFFC
3FFFFFBC
1FFFFF1C
0FFFFE0C
ENDCHAR
STARTCHAR 00E2
ENCODING 226
SWIDTH 925 0
DWIDTH 37 0
BBX 30 32 3 0
BITMAP
000F0000
001F8000
003FC000
007FE000
00FFF000
00F9F000
00F0F000
00E07000
00000000
0FFFFE0C
1FFFFF1C
3FFFFFBC
7FFFFFFC
FFFFFFFC
F800007C
F800007C
F800007C
F800007C
F800007C
F800007C
F800007C
F800007C
F800007C
F800007C
F800007C
F800007C
F800007C
FFFFFFFC
7FFFFFFC
3FFFFFBC
1FFFFF1C
0FFFFE0C
ENDCHAR
STARTCHAR 00E3
ENCODING 227
SWIDTH 925 0
DWIDTH 37 0
BBX 30 34 3 0
BITMAP
007E0040
00FF00C0
01FF01C0
03FF83C0
07E7C7C0
07C3EFC0
0781FF80
0700FF00
06007E00
04007C00
00000000
0FFFFE0C
1FFFFF1C
3FFFFFBC
7FFFFFFC
FFFFFFFC
F800007C
F800007C
F800007C
F800007C
F800007C
F800007C
F800007C
F800007C
F800007C
F800007C
F800007C
F800007C
F800007C
FFFFFFFC
7FFFFFFC
3FFFFFBC
1FFFFF1C
0FFFFE0C
ENDCHAR
STARTCHAR 00E4
ENCODING 228
SWIDTH 925 0
DWIDTH 37 0
BBX 30 29 3 0
BITMAP
03E0F800
03E0F800
03E0F800
03E0F800
03E0F800
00000000
0FFFFE0C
1FFFFF1C
3FFFFFBC
7FFFFFFC
FFFFFFFC
F800007C
F800007C
F800007C
F800007C
F800007C
F800007C
F800007C
F800007C
F800007C
F800007C
F800007C
F800007C
F800007C
FFFFFFFC
7FFFFFFC
3FFFFFBC
1FFFFF1C
0FFFFE0C
ENDCHAR
STARTCHAR 00E5
ENCODING 229
SWIDTH 925 0
DWIDTH 37 0
BBX 30 38 3 0
BITMAP
0007F000
000FF800
001FFC00
003F7E00
007E1F00
007C0F00
00780700
00780F00
007C1F00
007E3F00
003F7E00
001FFC00
000FF800
0007F000
00000000
0FFFFE0C
1FFFFF1C
3FFFFFBC
7FFFFFFC
FFFFFFFC
F800007C
F800007C
F800007C
F800007C
F800007C
F800007C
F800007C
F800007C
F800007C
F800007C
F800007C
F800007C
F800007C
FFFFFFFC
7FFFFFFC
3FFFFFBC
1FFFFF1C
0FFFFE0C
ENDCHAR
STARTCHAR 00E6
ENCODING 230
SWIDTH 1100 0
DWIDTH 44 0
BBX 38 23 3 0
BITMAP
07FFC3FFC0
0FFFEFFFE0
1FFFFFFFF0
3FFFFFFFF8
7FFFFFFFFC
F8007C007C
F8007C007C
F8007C007C
F8007C007C
F8007FFFFC
F8007FFFFC
F8007FFFFC
F8007FFFFC
F8007FFFFC
F8007C0000
F8007C0000
F8007C0000
F8007C0000
7FFFFFFFFC
3FFFFFFFFC
1FFFFFFFFC
0FFFFFFFFC
07FFFFFFFC
ENDCHAR
STARTCHAR 00E7
ENCODING 231
SWIDTH 850 0
DWIDTH 34 0
BBX 27 34 3 -11
BITMAP
07FFFFE0
0FFFFFE0
1FFFFFE0
3FFFFFE0
7FFFFFE0
F8000000
F8000000
F8000000
F8000000
F8000000
F8000000
F8000000
F8000000
F8000000
F8000000
F8000000
F8000000
F8000000
7FFFFFE0
3FFFFFE0
1FFFFFE0
0FFFFFE0
07FFFFE0
0001C000
0001E000
0001F000
0000F800
00007800
00007800
00787800
007FF800
007FF000
007FE000
003FE000
ENDCHAR
STARTCHAR 00E8
ENCODING 232
SWIDTH 925 0
DWIDTH 37 0
BBX 29 34 3 0
BITMAP
01F00000
01F80000
00FC0000
007E0000
003F0000
001F8000
000FC000
0007E000
0003E000
0001E000
00000000
0FFFFF80
1FFFFFC0
3FFFFFE0
7FFFFFF0
FFFFFFF8
F80000F8
F80000F8
F80000F8
F80000F8
FFFFFFF8
FFFFFFF8
FFFFFFF8
FFFFFFF8
FFFFFFF8
F8000000
F8000000
F8000000
F8000000
FFFFFFF8
7FFFFFF8
3FFFFFF8
1FFFFFF8
0FFFFFF8
ENDCHAR
STARTCHAR 00E9
ENCODING 233
SWIDTH 925 0
DWIDTH 37 0
BBX 29 34 3 0
BITMAP
00000F00
00001F00
00003E00
00007C00
0000FC00
0001F800
0003F000
0007E000
000FC000
000F8000
00000000
0FFFFF80
1FFFFFC0
3FFFFFE0
7FFFFFF0
FFFFFFF8
F80000F8
F80000F8
F80000F8
F80000F8
FFFFFFF8
FFFFFFF8
FFFFFFF8
FFFFFFF8
FFFFFFF8
F8000000
F8000000
F8000000
F8000000
FFFFFFF8
7FFFFFF8
3FFFFFF8
1FFFFFF8
0FFFFFF8
ENDCHAR
STARTCHAR 00EA
ENCODING 234
SWIDTH 925 0
DWIDTH 37 0
BBX 29 32 3 0
BITMAP
00078000
000FC000
001FE000
003FF000
007FF800
007CF800
00787800
00703800
00000000
0FFFFF80
1FFFFFC0
3FFFFFE0
7FFFFFF0
FFFFFFF8
F80000F8
F80000F8
F80000F8
F80000F8
FFFFFFF8
FFFFFFF8
FFFFFFF8
FFFFFFF8
FFFFFFF8
F8000000
F8000000
F8000000
F8000000
FFFFFFF8
7FFFFFF8
3FFFFFF8
1FFFFFF8
0FFFFFF8
ENDCHAR
STARTCHAR 00EB
ENCODING 235
SWIDTH 925 0
DWIDTH 37 0
BBX 29 29 3 0
BITMAP
01F07C00
01F07C00
01F07C00
01F07C00
01F07C00
00000000
0FFFFF80
1FFFFFC0
3FFFFFE0
7FFFFFF0
FFFFFFF8
F80000F8
F80000F8
F80000F8
F80000F8
FFFFFFF8
FFFFFFF8
FFFFFFF8
FFFFFFF8
FFFFFFF8
F8000000
F8000000
F8000000
F8000000
FFFFFFF8
7FFFFFF8
3FFFFFF8
1FFFFFF8
0FFFFFF8
ENDCHAR
STARTCHAR 00EC
ENCODING 236
SWIDTH 375 0
DWIDTH 15 0
BBX 12 34 1 0
BITMAP
F800
FC00
7E00
3F00
1F80
0FC0
07E0
03F0
01F0
00F0
0000
3E00
3E00
3E00
3E00
3E00
3E00
3E00
3E00
3E00
3E00
3E00
3E00
3E00
3E00
3E00
3E00
3E00
3E00
3FE0
1FE0
0FE0
07E0
03E0
ENDCHAR
STARTCHAR 00ED
ENCODING 237
SWIDTH 375 0
DWIDTH 15 0
BBX 13 34 3 0
BITMAP
0078
00F8
01F0
03E0
07E0
0FC0
1F80
3F00
7E00
7C00
0000
F800
F800
F800
F800
F800
F800
F800
F800
F800
F800
F800
F800
F800
F800
F800
F800
F800
F800
FF80
7F80
3F80
1F80
0F80
ENDCHAR
STARTCHAR 00EE
ENCODING 238
SWIDTH 375 0
DWIDTH 15 0
BBX 12 32 0 0
BITMAP
0F00
1F80
3FC0
7FE0
FFF0
F9F0
F0F0
E070
0000
1F00
1F00
1F00
1F00
1F00
1F00
1F00
1F00
1F00
1F00
1F00
1F00
1F00
1F00
1F00
1F00
1F00
1F00
1FF0
0FF0
07F0
03F0
01F0
ENDCHAR
STARTCHAR 00EF
ENCODING 239
SWIDTH 425 0
DWIDTH 17 0
BBX 15 29 -2 0
BITMAP
F83E
F83E
F83E
F83E
F83E
0000
07C0
07C0
07C0
07C0
07C0
07C0
07C0
07C0
07C0
07C0
07C0
07C0
07C0
07C0
07C0
07C0
07C0
07C0
07FC
03FC
01FC
00FC
007C
ENDCHAR
STARTCHAR 00F0
ENCODING 240
SWIDTH 925 0
DWIDTH 37 0
BBX 30 29 3 0
BITMAP
000F8000
0007C000
0003E000
0001F000
0000F800
001FFFFC
001FFFFC
001FFFFC
001FFFFC
001FFFFC
00000FE0
000007F0
07FFFFF8
0FFFFFFC
1FFFFFFC
3FFFFFFC
7FFFFFFC
F800007C
F800007C
F800007C
F800007C
F800007C
F800007C
F800007C
7FFFFFFC
3FFFFFF8
1FFFFFF0
0FFFFFE0
07FFFFC0
ENDCHAR
STARTCHAR 00F1
ENCODING 241
SWIDTH 875 0
DWIDTH 35 0
BBX 29 34 3 0
BITMAP
000FC008
001FE018
003FE038
007FF078
00FCF8F8
00F87DF8
00F03FF0
00E01FE0
00C00FC0
00800F80
00000000
C1FFFF80
E3FFFFC0
F7FFFFE0
FFFFFFF0
FFFFFFF8
F80000F8
F80000F8
F80000F8
F80000F8
F80000F8
F80000F8
F80000F8
F80000F8
F80000F8
F80000F8
F80000F8
F80000F8
F80000F8
F80000F8
F80000F8
F80000F8
F80000F8
F80000F8
ENDCHAR
STARTCHAR 00F2
ENCODING 242
SWIDTH 925 0
DWIDTH 37 0
BBX 30 34 3 0
BITMAP
01F00000
01F80000
00FC0000
007E0000
003F0000
001F8000
000FC000
0007E000
0003E000
0001E000
00000000
0FFFFFC0
1FFFFFE0
3FFFFFF0
7FFFFFF8
FFFFFFFC
F800007C
F800007C
F800007C
F800007C
F800007C
F800007C
F800007C
F800007C
F800007C
F800007C
F800007C
F800007C
F800007C
FFFFFFFC
7FFFFFF8
3FFFFFF0
1FFFFFE0
0FFFFFC0
ENDCHAR
STARTCHAR 00F3
ENCODING 243
SWIDTH 925 0
DWIDTH 37 0
BBX 30 34 3 0
BITMAP
00000F00
00001F00
00003E00
00007C00
0000FC00
0001F800
0003F000
0007E000
000FC000
000F8000
00000000
0FFFFFC0
1FFFFFE0
3FFFFFF0
7FFFFFF8
FFFFFFFC
F800007C
F800007C
F800007C
F800007C
F800007C
F800007C
F800007C
F800007C
F800007C
F800007C
F800007C
F800007C
F800007C
FFFFFFFC
7FFFFFF8
3FFFFFF0
1FFFFFE0
0FFFFFC0
ENDCHAR
STARTCHAR 00F4
ENCODING 244
SWIDTH 925 0
DWIDTH 37 0
BBX 30 32 3 0
BITMAP
00078000
000FC000
001FE000
003FF000
007FF800
007CF800
00787800
00703800
00000000
0FFFFFC0
1FFFFFE0
3FFFFFF0
7FFFFFF8
FFFFFFFC
F800007C
F800007C
F800007C
F800007C
F800007C
F800007C
F800007C
F800007C
F800007C
F800007C
F800007C
F800007C
F800007C
FFFFFFFC
7FFFFFF8
3FFFFFF0
1FFFFFE0
0FFFFFC0
ENDCHAR
STARTCHAR 00F5
ENCODING 245
SWIDTH 925 0
DWIDTH 37 0
BBX 30 34 3 0
BITMAP
007E0040
00FF00C0
01FF01C0
03FF83C0
07E7C7C0
07C3EFC0
0781FF80
0700FF00
06007E00
04007C00
00000000
0FFFFFC0
1FFFFFE0
3FFFFFF0
7FFFFFF8
FFFFFFFC
F800007C
F800007C
F800007C
F800007C
F800007C
F800007C
F800007C
F800007C
F800007C
F800007C
F800007C
F800007C
F800007C
FFFFFFFC
7FFFFFF8
3FFFFFF0
1FFFFFE0
0FFFFFC0
ENDCHAR
STARTCHAR 00F6
ENCODING 246
SWIDTH 925 0
DWIDTH 37 0
BBX 30 29 3 0
BITMAP
01F07C00
01F07C00
01F07C00
01F07C00
01F07C00
00000000
0FFFFFC0
1FFFFFE0
3FFFFFF0
7FFFFFF8
FFFFFFFC
F800007C
F800007C
F800007C
F800007C
F800007C
F800007C
F800007C
F800007C
F800007C
F800007C
F800007C
F800007C
F800007C
FFFFFFFC
7FFFFFF8
3FFFFFF0
1FFFFFE0
0FFFFFC0
ENDCHAR
STARTCHAR 00F7
ENCODING 247
SWIDTH 500 0
DWIDTH 20 0
BBX 14 23 3 3
BITMAP
07C0
07C0
07C0
07C0
07C0
0000
0000
0000
0000
FFFC
FFFC
FFFC
FFFC
FFFC
0000
0000
0000
0000
07C0
07C0
07C0
07C0
07C0
ENDCHAR
STARTCHAR 00F8
ENCODING 248
SWIDTH 875 0
DWIDTH 35 0
BBX 29 23 3 0
BITMAP
07FFFF80
0FFFFFC0
1FFFFFE0
3FFFFFF0
7FFFFFF8
F8003FF8
F8007EF8
F800FCF8
F801F8F8
F803F0F8
F807E0F8
F80FC0F8
F81F80F8
F83F00F8
F87E00F8
F8FC00F8
F9F800F8
FBF000F8
7FFFFFF8
3FFFFFF0
1FFFFFE0
0FFFFFC0
07FFFF80
ENDCHAR
STARTCHAR 00F9
ENCODING 249
SWIDTH 875 0
DWIDTH 35 0
BBX 29 34 3 0
BITMAP
01F00000
01F80000
00FC0000
007E0000
003F0000
001F8000
000FC000
0007E000
0003E000
0001E000
00000000
F80000F8
F80000F8
F80000F8
F80000F8
F80000F8
F80000F8
F80000F8
F80000F8
F80000F8
F80000F8
F80000F8
F80000F8
F80000F8
F80000F8
F80000F8
F80000F8
F80000F8
F80000F8
FFFFFFF8
7FFFFFF8
3FFFFF78
1FFFFE38
0FFFFC18
ENDCHAR
STARTCHAR 00FA
ENCODING 250
SWIDTH 875 0
DWIDTH 35 0
BBX 29 34 3 0
BITMAP
00000F00
00001F00
00003E00
00007C00
0000FC00
0001F800
0003F000
0007E000
000FC000
000F8000
00000000
F80000F8
F80000F8
F80000F8
F80000F8
F80000F8
F80000F8
F80000F8
F80000F8
F80000F8
F80000F8
F80000F8
F80000F8
F80000F8
F80000F8
F80000F8
F80000F8
F80000F8
F80000F8
FFFFFFF8
7FFFFFF8
3FFFFF78
1FFFFE38
0FFFFC18
ENDCHAR
STARTCHAR 00FB
ENCODING 251
SWIDTH 875 0
DWIDTH 35 0
BBX 29 32 3 0
BITMAP
00078000
000FC000
001FE000
003FF000
007FF800
007CF800
00787800
00703800
00000000
F80000F8
F80000F8
F80000F8
F80000F8
F80000F8
F80000F8
F80000F8
F80000F8
F80000F8
F80000F8
F80000F8
F80000F8
F80000F8
F80000F8
F80000F8
F80000F8
F80000F8
F80000F8
FFFFFFF8
7FFFFFF8
3FFFFF78
1FFFFE38
0FFFFC18
ENDCHAR
STARTCHAR 00FC
ENCODING 252
SWIDTH 875 0
DWIDTH 35 0
BBX 29 29 3 0
BITMAP
01F07C00
01F07C00
01F07C00
01F07C00
01F07C00
00000000
F80000F8
F80000F8
F80000F8
F80000F8
F80000F8
F80000F8
F80000F8
F80000F8
F80000F8
F80000F8
F80000F8
F80000F8
F80000F8
F80000F8
F80000F8
F80000F8
F80000F8
F80000F8
FFFFFFF8
7FFFFFF8
3FFFFF78
1FFFFE38
0FFFFC18
ENDCHAR
STARTCHAR 00FD
ENCODING 253
SWIDTH 875 0
DWIDTH 35 0
BBX 29 43 3 -9
BITMAP
00000F00
00001F00
00003E00
00007C00
0000FC00
0001F800
0003F000
0007E000
000FC000
000F8000
00000000
F80000F8
F80000F8
F80000F8
F80000F8
F80000F8
F80000F8
F80000F8
F80000F8
F80000F8
F80000F8
F80000F8
F80000F8
F80000F8
F80000F8
F80000F8
F80000F8
F80000F8
F80000F8
FFFFFFF8
7FFFFFF8
3FFFFFF8
1FFFFEF8
0FFFFCF8
000000F8
000000F8
000000F8
000000F8
07FFFFF8
07FFFFF0
07FFFFE0
07FFFFC0
07FFFF80
ENDCHAR
STARTCHAR 00FE
ENCODING 254
SWIDTH 925 0
DWIDTH 37 0
BBX 30 38 3 -9
BITMAP
F8000000
F8000000
F8000000
F8000000
F8000000
F8000000
F9FFFFC0
F9FFFFE0
FBFFFFF0
FFFFFFF8
FFFFFFFC
F800007C
F800007C
F800007C
F800007C
F800007C
F800007C
F800007C
F800007C
F800007C
F800007C
F800007C
F800007C
F800007C
FFFFFFFC
FFFFFFF8
FBFFFFF0
F9FFFFE0
F9FFFFC0
F8000000
F8000000
F8000000
F8000000
F8000000
F8000000
F8000000
F8000000
F8000000
ENDCHAR
STARTCHAR 00FF
ENCODING 255
SWIDTH 875 0
DWIDTH 35 0
BBX 29 38 3 -9
BITMAP
01F07C00
01F07C00
01F07C00
01F07C00
01F07C00
00000000
F80000F8
F80000F8
F80000F8
F80000F8
F80000F8
F80000F8
F80000F8
F80000F8
F80000F8
F80000F8
F80000F8
F80000F8
F80000F8
F80000F8
F80000F8
F80000F8
F80000F8
F80000F8
FFFFFFF8
7FFFFFF8
3FFFFFF8
1FFFFEF8
0FFFFCF8
000000F8
000000F8
000000F8
000000F8
07FFFFF8
07FFFFF0
07FFFFE0
07FFFFC0
07FFFF80
ENDCHAR
STARTCHAR 0131
ENCODING 305
SWIDTH 375 0
DWIDTH 15 0
BBX 9 23 3 0
BITMAP
F800
F800
F800
F800
F800
F800
F800
F800
F800
F800
F800
F800
F800
F800
F800
F800
F800
F800
7F80
3F80
1F80
0F80
0780
ENDCHAR
STARTCHAR 0141
ENCODING 321
SWIDTH 875 0
DWIDTH 35 0
BBX 30 30 1 0
BITMAP
1F000000
1F000000
1F000000
1F000000
1F000000
1F000000
1F000000
1F000000
1F000000
1F000000
1F000000
1F000000
1F000000
FFF00000
FFF00000
FFF00000
FFF00000
FFF00000
1F000000
1F000000
1F000000
1F000000
1F000000
1F000000
1F000000
1FFFFFFC
1FFFFFFC
1FFFFFFC
1FFFFFFC
1FFFFFFC
ENDCHAR
STARTCHAR 0142
ENCODING 322
SWIDTH 400 0
DWIDTH 16 0
BBX 12 29 1 0
BITMAP
1F00
1F00
1F00
1F00
1F00
1F00
1F00
1F00
1F00
1F00
1F00
1F00
FFF0
FFF0
FFF0
FFF0
FFF0
1F00
1F00
1F00
1F00
1F00
1F00
1F00
1FF0
0FF0
07F0
03F0
01F0
ENDCHAR
STARTCHAR 0152
ENCODING 338
SWIDTH 1100 0
DWIDTH 44 0
BBX 38 29 3 0
BITMAP
07FFFFFFFC
0FFFFFFFFC
1FFFFFFFFC
3FFFFFFFFC
7FFFFFFFFC
F8007C0000
F8007C0000
F8007C0000
F8007C0000
F8007C0000
F8007C0000
F8007C0000
F8007FFFFC
F8007FFFFC
F8007FFFFC
F8007FFFFC
F8007FFFFC
F8007C0000
F8007C0000
F8007C0000
F8007C0000
F8007C0000
F8007C0000
F8007C0000
7FFFFFFFFC
3FFFFFFFFC
1FFFFFFFFC
0FFFFFFFFC
07FFFFFFFC
ENDCHAR
STARTCHAR 0153
ENCODING 339
SWIDTH 1100 0
DWIDTH 44 0
BBX 38 23 3 0
BITMAP
07FFC3FFC0
0FFFEFFFE0
1FFFFFFFF0
3FFFFFFFF8
7FFFFFFFFC
F8007C007C
F8007C007C
F8007C007C
F8007C007C
F8007FFFFC
F8007FFFFC
F8007FFFFC
F8007FFFFC
F8007FFFFC
F8007C0000
F8007C0000
F8007C0000
F8007C0000
7FFFFFFFFC
3FFFFFFFFC
1FFFFFFFFC
0FFFEFFFFC
07FFC7FFFC
ENDCHAR
STARTCHAR 0160
ENCODING 352
SWIDTH 925 0
DWIDTH 37 0
BBX 30 38 3 0
BITMAP
00703800
00787800
007CF800
003FF800
003FF000
001FE000
000FC000
00078000
00000000
0FFFFFC0
1FFFFFE0
3FFFFFF0
7FFFFFF8
FFFFFFFC
F800007C
F800007C
F800007C
F800007C
F8000000
F8000000
F8000000
FFFFFF80
7FFFFFC0
3FFFFFE0
1FFFFFF0
0FFFFFF8
0000007C
0000007C
0000007C
F800007C
F800007C
F800007C
F800007C
FFFFFFFC
7FFFFFF8
3FFFFFF0
1FFFFFE0
0FFFFFC0
ENDCHAR
STARTCHAR 0161
ENCODING 353
SWIDTH 925 0
DWIDTH 37 0
BBX 27 32 3 0
BITMAP
00703800
00787800
007CF800
003FF800
003FF000
001FE000
000FC000
00078000
00000000
0FFFFFE0
1FFFFFE0
3FFFFFE0
7FFFFFE0
FFFFFFE0
F8000000
F8000000
F8000000
F8000000
FFFFFC00
7FFFFE00
3FFFFF00
1FFFFF80
0FFFFFC0
000003E0
000003E0
000003E0
000003E0
FFFFFFE0
FFFFFFC0
FFFFFF80
FFFFFF00
FFFFFE00
ENDCHAR
STARTCHAR 0178
ENCODING 376
SWIDTH 875 0
DWIDTH 35 0
BBX 28 37 1 0
BITMAP
007C1F00
007C1F00
007C1F00
007C1F00
007C1F00
00000000
00000000
00000000
F00000F0
F00000F0
F00000F0
F80001F0
FC0003F0
7E0007E0
3E0007C0
1F000F80
0F801F00
07C03E00
03E07C00
01F0F800
00F9F000
007FE000
003FC000
001F8000
000F0000
000F0000
000F0000
000F0000
000F0000
000F0000
000F0000
000F0000
000F0000
000F0000
000F0000
000F0000
000F0000
ENDCHAR
STARTCHAR 017D
ENCODING 381
SWIDTH 800 0
DWIDTH 32 0
BBX 26 40 3 0
BITMAP
00E07000
00F0F000
00F9F000
007FF000
007FE000
003FC000
001F8000
000F0000
00000000
00000000
00000000
FFFFFFC0
FFFFFFC0
FFFFFFC0
FFFFFFC0
FFFFFFC0
00001F80
00003F00
00007E00
0000FC00
0001F800
0003F000
0007E000
000FC000
001F8000
003F0000
007E0000
00FC0000
01F80000
03F00000
07E00000
0FC00000
1F800000
3F000000
7E000000
FFFFFFC0
FFFFFFC0
FFFFFFC0
FFFFFFC0
FFFFFFC0
ENDCHAR
STARTCHAR 017E
ENCODING 382
SWIDTH 850 0
DWIDTH 34 0
BBX 27 32 3 0
BITMAP
00E07000
00F0F000
00F9F000
007FF000
007FE000
003FC000
001F8000
000F0000
00000000
FFFFFFE0
FFFFFFE0
FFFFFFE0
FFFFFFE0
FFFFFFE0
000003E0
000003E0
000003E0
000003E0
0FFFFFE0
1FFFFFC0
3FFFFF80
7FFFFE00
FFFFFC00
F8000000
F8000000
F8000000
F8000000
FFFFFFE0
FFFFFFE0
FFFFFFE0
FFFFFFE0
FFFFFFE0
ENDCHAR
STARTCHAR 0192
ENCODING 402
SWIDTH 725 0
DWIDTH 29 0
BBX 23 34 3 -5
BITMAP
0003FE
0007FE
000FFE
001FFE
003FFE
007C00
007C00
007C00
007C00
007C00
007C00
07FFFE
07FFFE
07FFFE
07FFFE
07FFFE
007C00
007C00
007C00
007C00
007C00
007C00
007C00
007C00
007C00
007C00
007C00
007C00
007C00
FFFC00
FFF800
FFF000
FFE000
FFC000
ENDCHAR
STARTCHAR 02C6
ENCODING 710
SWIDTH 450 0
DWIDTH 18 0
BBX 12 8 3 24
BITMAP
0F00
1F80
3FC0
7FE0
FFF0
F9F0
F0F0
E070
ENDCHAR
STARTCHAR 02C7
ENCODING 711
SWIDTH 425 0
DWIDTH 17 0
BBX 12 8 3 30
BITMAP
E070
F0F0
F9F0
7FF0
7FE0
3FC0
1F80
0F00
ENDCHAR
STARTCHAR 02C9
ENCODING 713
SWIDTH 775 0
DWIDTH 31 0
BBX 14 5 4 29
BITMAP
FFFC
FFFC
FFFC
FFFC
FFFC
ENDCHAR
STARTCHAR 02D8
ENCODING 728
SWIDTH 600 0
DWIDTH 24 0
BBX 18 8 3 26
BITMAP
F003C0
F003C0
F807C0
7C0FC0
7FFF80
3FFF00
1FFE00
0FFC00
ENDCHAR
STARTCHAR 02D9
ENCODING 729
SWIDTH 275 0
DWIDTH 11 0
BBX 5 5 3 30
BITMAP
F8
F8
F8
F8
F8
ENDCHAR
STARTCHAR 02DA
ENCODING 730
SWIDTH 950 0
DWIDTH 38 0
BBX 15 14 4 24
BITMAP
0FE0
1FF0
3FF8
7E7C
FC3E
F81E
F00E
F01E
F83E
FC7E
7EFC
3FF8
1FF0
0FE0
ENDCHAR
STARTCHAR 02DB
ENCODING 731
SWIDTH 950 0
DWIDTH 38 0
BBX 12 9 10 -11
BITMAP
7C00
FC00
F800
F000
F8F0
FBF0
7FF0
3FF0
1FE0
ENDCHAR
STARTCHAR 02DC
ENCODING 732
SWIDTH 675 0
DWIDTH 27 0
BBX 21 10 3 24
BITMAP
0FC008
1FE018
3FE038
7FF078
7CF8F8
F87DF8
F03FF0
E01FE0
C00FC0
800F80
ENDCHAR
STARTCHAR 02DD
ENCODING 733
SWIDTH 825 0
DWIDTH 33 0
BBX 21 10 4 30
BITMAP
01F078
03F0F8
07E1F8
0FC3F0
1F87E0
1F0FC0
3E1F80
7C1F00
F83E00
F07C00
ENDCHAR
STARTCHAR 0394
ENCODING 916
SWIDTH 925 0
DWIDTH 37 0
BBX 31 21 3 0
BITMAP
00078000
000FC000
001FE000
003FF000
007EF800
00FC7C00
01F83E00
03F01F00
07E00F80
0FC007E0
1F8003F0
3F0001F8
7E0000FC
FC00007E
F800003E
F000001E
FFFFFFFE
FFFFFFFE
FFFFFFFE
FFFFFFFE
FFFFFFFE
ENDCHAR
STARTCHAR 03A9
ENCODING 937
SWIDTH 925 0
DWIDTH 37 0
BBX 30 29 3 0
BITMAP
07FFFFC0
0FFFFFE0
1FFFFFF0
3FFFFFF8
7FFFFFFC
F800007C
F800007C
F800007C
F800007C
F800007C
F800003C
F800003C
F800003C
F800003C
F800003C
F800003C
FC00007C
7E0000F8
3F0001F8
1F8003F0
0FC007E0
07C00FC0
07C00FC0
07C00F80
FFC007FC
FF8003FC
FF0001FC
FE0000FC
FC00007C
ENDCHAR
STARTCHAR 03BC
ENCODING 956
SWIDTH 925 0
DWIDTH 37 0
BBX 30 32 3 -9
BITMAP
F800007C
F800007C
F800007C
F800007C
F800007C
F800007C
F800007C
F800007C
F800007C
F800007C
F800007C
F800007C
F800007C
F800007C
F800007C
F800007C
F800007C
F800007C
FFFFFFFC
FFFFFFFC
FBFFFFBC
F9FFFF1C
F8FFFE0C
F8000000
F8000000
F8000000
F8000000
F8000000
F8000000
F8000000
F8000000
F8000000
ENDCHAR
STARTCHAR 03C0
ENCODING 960
SWIDTH 725 0
DWIDTH 29 0
BBX 23 23 3 0
BITMAP
FFFFFE
FFFFFE
FFFFFE
FFFFFE
FFFFFE
07C7C0
07C7C0
07C7C0
07C7C0
07C7C0
07C7C0
07C7C0
07C7C0
07C7C0
07C7C0
07C7C0
07C7C0
07C7C0
07C7C0
07C7C0
07C7C0
07C7C0
07C7C0
ENDCHAR
STARTCHAR 2010
ENCODING 8208
SWIDTH 500 0
DWIDTH 20 0
BBX 14 5 3 12
BITMAP
FFFC
FFFC
FFFC
FFFC
FFFC
ENDCHAR
STARTCHAR 2013
ENCODING 8211
SWIDTH 800 0
DWIDTH 32 0
BBX 26 5 3 12
BITMAP
FFFFFFC0
FFFFFFC0
FFFFFFC0
FFFFFFC0
FFFFFFC0
ENDCHAR
STARTCHAR 2014
ENCODING 8212
SWIDTH 950 0
DWIDTH 38 0
BBX 32 5 3 12
BITMAP
FFFFFFFF
FFFFFFFF
FFFFFFFF
FFFFFFFF
FFFFFFFF
ENDCHAR
STARTCHAR 2018
ENCODING 8216
SWIDTH 225 0
DWIDTH 9 0
BBX 5 8 3 21
BITMAP
F8
F8
F8
F8
F0
C0
E0
60
ENDCHAR
STARTCHAR 2019
ENCODING 8217
SWIDTH 225 0
DWIDTH 9 0
BBX 5 8 2 21
BITMAP
F8
F8
F8
F8
78
38
70
60
ENDCHAR
STARTCHAR 201A
ENCODING 8218
SWIDTH 275 0
DWIDTH 11 0
BBX 5 8 3 -3
BITMAP
F8
F8
F8
F8
78
18
38
30
ENDCHAR
STARTCHAR 201C
ENCODING 8220
SWIDTH 425 0
DWIDTH 17 0
BBX 12 8 3 21
BITMAP
F9F0
F9F0
F9F0
F9F0
E1E0
C1C0
E0E0
6060
ENDCHAR
STARTCHAR 201D
ENCODING 8221
SWIDTH 425 0
DWIDTH 17 0
BBX 12 8 2 21
BITMAP
F9F0
F9F0
F9F0
F9F0
78F0
3030
7060
6060
ENDCHAR
STARTCHAR 201E
ENCODING 8222
SWIDTH 450 0
DWIDTH 18 0
BBX 12 8 3 -3
BITMAP
F9F0
F9F0
F9F0
F9F0
78F0
3830
3070
2060
ENDCHAR
STARTCHAR 2020
ENCODING 8224
SWIDTH 650 0
DWIDTH 26 0
BBX 20 27 3 0
BITMAP
00F800
00F800
00F800
00F800
00F800
00F800
00F800
FFFFF0
FFFFF0
FFFFF0
FFFFF0
FFFFF0
00F800
00F800
00F800
00F800
00F800
00F800
00F800
00F800
00F800
00F800
00F800
00F800
00F800
00F800
00F800
ENDCHAR
STARTCHAR 2021
ENCODING 8225
SWIDTH 650 0
DWIDTH 26 0
BBX 20 24 3 0
BITMAP
00F800
00F800
00F800
00F800
FFFFF0
FFFFF0
FFFFF0
FFFFF0
FFFFF0
00F800
00F800
00F800
00F800
FFFFF0
FFFFF0
FFFFF0
FFFFF0
FFFFF0
00F800
00F800
00F800
00F800
00F800
00F800
ENDCHAR
STARTCHAR 2022
ENCODING 8226
SWIDTH 500 0
DWIDTH 20 0
BBX 14 13 3 8
BITMAP
0FC0
1FE0
3FF0
7FF8
FFFC
FFFC
FFFC
FFFC
FFFC
7FF8
3FF0
1FE0
0FC0
ENDCHAR
STARTCHAR 2026
ENCODING 8230
SWIDTH 725 0
DWIDTH 29 0
BBX 23 5 3 0
BITMAP
F87C3E
F87C3E
F87C3E
F87C3E
F87C3E
ENDCHAR
STARTCHAR 2030
ENCODING 8240
SWIDTH 1250 0
DWIDTH 50 0
BBX 44 29 3 0
BITMAP
07E003E00000
0FF003E00000
1FF803E00000
3CFC03E00000
787E03E00000
F83E07C00000
F01E0F800000
F01E1F000000
F83E3E000000
F87E7C000000
7CFCF8000000
7FF9F0000000
3FF3E0000000
1FE7C0000000
0FCF8F803F00
001F1FC07F80
003E3FE0FFC0
007C7FE1FFC0
00F8F9F3F3E0
01F1F0FBE1F0
03E1F07BE0F0
07C1E07BC0F0
0FC1E07BC0F0
1F81F0FBE1F0
3F00F1F9E3F0
3E00FBF1F7E0
3E007FE0FFC0
3E003FC07F80
3E001F803F00
ENDCHAR
STARTCHAR 2039
ENCODING 8249
SWIDTH 375 0
DWIDTH 15 0
BBX 9 13 3 8
BITMAP
0380
0780
1F80
3F00
7E00
FC00
F800
FC00
7E00
3F00
1F80
0780
0380
ENDCHAR
STARTCHAR 203A
ENCODING 8250
SWIDTH 375 0
DWIDTH 15 0
BBX 9 13 3 8
BITMAP
F000
F800
FC00
7E00
3F00
1F80
0F80
1F80
3F00
7E00
FC00
F800
F000
ENDCHAR
STARTCHAR 2044
ENCODING 8260
SWIDTH 675 0
DWIDTH 27 0
BBX 24 30 2 0
BITMAP
00001F
00001F
00001F
00001F
00001F
00003F
00007E
0000FC
0001F8
0003F0
0007E0
000FC0
001F80
003F00
007E00
00FC00
00F800
01F000
03E000
07C000
0F8000
1F0000
3E0000
7C0000
F80000
F80000
F80000
F80000
F80000
F80000
ENDCHAR
STARTCHAR 2122
ENCODING 8482
SWIDTH 1175 0
DWIDTH 47 0
BBX 44 20 2 9
BITMAP
FFFFE7C001F0
FFFFE7E003F0
FFFFE7F00FF0
FFFFE7F81FF0
FFFFE7FC3FF0
00F807FE7FF0
00F807FF7DF0
00F807DFF9F0
00F807CFF1F0
00F807C7E1F0
00F807C3C1F0
00F807C181F0
00F807C001F0
00F807C001F0
00F807C001F0
00F807C001F0
00F807C001F0
00F807C001F0
00F807C001F0
00F807C001F0
ENDCHAR
STARTCHAR 2126
ENCODING 8486
SWIDTH 925 0
DWIDTH 37 0
BBX 30 29 3 0
BITMAP
07FFFFC0
0FFFFFE0
1FFFFFF0
3FFFFFF8
7FFFFFFC
F800007C
F800007C
F800007C
F800007C
F800007C
F800003C
F800003C
F800003C
F800003C
F800003C
F800003C
FC00007C
7E0000F8
3F0001F8
1F8003F0
0FC007E0
07C00FC0
07C00FC0
07C00F80
FFC007FC
FF8003FC
FF0001FC
FE0000FC
FC00007C
ENDCHAR
STARTCHAR 2202
ENCODING 8706
SWIDTH 925 0
DWIDTH 37 0
BBX 30 29 3 0
BITMAP
001F8000
001FC000
000FE000
0007F000
0003F800
0001FC00
0000FE00
00007F00
00003F80
00001FC0
00000FE0
000007F0
07FFFFF8
0FFFFFFC
1FFFFFFC
3FFFFFFC
7FFFFFFC
F800007C
F800007C
F800007C
F800007C
F800007C
F800007C
F800007C
7FFFFFFC
3FFFFFF8
1FFFFFF0
0FFFFFE0
07FFFFC0
ENDCHAR
STARTCHAR 2206
ENCODING 8710
SWIDTH 925 0
DWIDTH 37 0
BBX 31 21 3 0
BITMAP
00078000
000FC000
001FE000
003FF000
007EF800
00FC7C00
01F83E00
03F01F00
07E00F80
0FC007E0
1F8003F0
3F0001F8
7E0000FC
FC00007E
F800003E
F000001E
FFFFFFFE
FFFFFFFE
FFFFFFFE
FFFFFFFE
FFFFFFFE
ENDCHAR
STARTCHAR 220F
ENCODING 8719
SWIDTH 725 0
DWIDTH 29 0
BBX 23 29 3 0
BITMAP
FFFFFE
FFFFFE
FFFFFE
FFFFFE
FFFFFE
07C7C0
07C7C0
07C7C0
07C7C0
07C7C0
07C7C0
07C7C0
07C7C0
07C7C0
07C7C0
07C7C0
07C7C0
07C7C0
07C7C0
07C7C0
07C7C0
07C7C0
07C7C0
07C7C0
07C7C0
07C7C0
07C7C0
07C7C0
07C7C0
ENDCHAR
STARTCHAR 2211
ENCODING 8721
SWIDTH 800 0
DWIDTH 32 0
BBX 26 29 3 0
BITMAP
07FFFFC0
0FFFFFC0
1FFFFFC0
3FFFFFC0
7FFFFFC0
F8000000
F8000000
F8000000
F8000000
FC000000
7E000000
3F000000
1FFFF000
0FFFF000
07FFF000
0FFFF000
1FFFF000
3F000000
7E000000
FC000000
F8000000
F8000000
F8000000
F8000000
7FFFFFC0
3FFFFFC0
1FFFFFC0
0FFFFFC0
07FFFFC0
ENDCHAR
STARTCHAR 2212
ENCODING 8722
SWIDTH 500 0
DWIDTH 20 0
BBX 14 5 3 12
BITMAP
FFFC
FFFC
FFFC
FFFC
FFFC
ENDCHAR
STARTCHAR 2219
ENCODING 8729
SWIDTH 275 0
DWIDTH 11 0
BBX 5 5 3 12
BITMAP
F8
F8
F8
F8
F8
ENDCHAR
STARTCHAR 221A
ENCODING 8730
SWIDTH 800 0
DWIDTH 32 0
BBX 26 29 3 0
BITMAP
07FFFFC0
0FFFFFC0
1FFFFFC0
3FFFFFC0
7FFFFFC0
F8000000
F8000000
F8000000
F8000000
FC000000
7E000000
3F000000
1FFFFFC0
0FFFFFC0
07FFFFC0
0FFFFFC0
1FFFFFC0
3F000000
7E000000
FC000000
F8000000
F8000000
F8000000
F8000000
7FFFFFC0
3FFFFFC0
1FFFFFC0
0FFFFFC0
07FFFFC0
ENDCHAR
STARTCHAR 221E
ENCODING 8734
SWIDTH 875 0
DWIDTH 35 0
BBX 28 19 3 5
BITMAP
0FF8FF00
1FFFFF80
3FFFFFC0
7FFFFFE0
FFFFFFF0
F00F00F0
F00F00F0
F00F00F0
F00F00F0
F00F00F0
F00F00F0
F00F00F0
F00F00F0
F00F00F0
FFFFFFF0
7FFFFFE0
3FFFFFC0
1FFFFF80
0FF9FF00
ENDCHAR
STARTCHAR 222B
ENCODING 8747
SWIDTH 725 0
DWIDTH 29 0
BBX 23 34 3 -5
BITMAP
0003FE
0007FE
000FFE
001FFE
003FFE
007C00
007C00
007C00
007C00
007C00
007C00
007C00
007C00
007C00
007C00
007C00
007C00
007C00
007C00
007C00
007C00
007C00
007C00
007C00
007C00
007C00
007C00
007C00
007C00
FFFC00
FFF800
FFF000
FFE000
FFC000
ENDCHAR
STARTCHAR 2248
ENCODING 8776
SWIDTH 750 0
DWIDTH 30 0
BBX 24 21 3 6
BITMAP
03E007
07F00F
1FF81F
3F7E3F
7E3F7E
FC1FFC
F80FF8
F007F0
E003E0
000000
000000
000000
07E007
0FF00F
1FF81F
3FFC3F
7E7E7E
FC3FFC
F81FF8
F00FF0
E007E0
ENDCHAR
STARTCHAR 2260
ENCODING 8800
SWIDTH 600 0
DWIDTH 24 0
BBX 23 19 1 5
BITMAP
00007E
0000FC
0003F8
3FFFF0
3FFFF0
3FFFF0
3FFFF0
3FFFF0
001F80
003F00
007E00
3FFFF0
3FFFF0
3FFFF0
3FFFF0
3FFFF0
3F0000
7E0000
FC0000
ENDCHAR
STARTCHAR 2264
ENCODING 8804
SWIDTH 575 0
DWIDTH 23 0
BBX 17 21 3 0
BITMAP
007C00
00FC00
03FC00
07F800
0FF000
1FE000
1FC000
0FE000
07F000
03F800
01FC00
00FC00
007C00
000000
000000
000000
FFFF80
FFFF80
FFFF80
FFFF80
FFFF80
ENDCHAR
STARTCHAR 2265
ENCODING 8805
SWIDTH 575 0
DWIDTH 23 0
BBX 17 21 3 0
BITMAP
1F0000
1F8000
1FC000
0FE000
07F000
03F800
01FC00
03F800
07F000
0FE000
1FC000
1F8000
1F0000
000000
000000
000000
FFFF80
FFFF80
FFFF80
FFFF80
FFFF80
ENDCHAR
STARTCHAR 22F2
ENCODING 8946
SWIDTH 750 0
DWIDTH 30 0
BBX 24 21 3 6
BITMAP
03E007
07F00F
1FF81F
3F7E3F
7E3F7E
FC1FFC
F80FF8
F007F0
E003E0
000000
000000
000000
07E007
0FF00F
1FF81F
3FFC3F
7E7E7E
FC3FFC
F81FF8
F00FF0
E007E0
ENDCHAR
STARTCHAR 25CA
ENCODING 9674
SWIDTH 725 0
DWIDTH 29 0
BBX 23 19 3 5
BITMAP
007C00
00FE00
01FF00
03EF80
0FC7C0
1F83F0
3F01F8
7E00FC
FC007E
F8003E
FC007E
7E00FC
3F01F8
1F83F0
0FC7E0
03EF80
01FF00
00FE00
007C00
ENDCHAR
STARTCHAR F000
ENCODING 61440
SWIDTH 600 0
DWIDTH 24 0
BBX 21 24 2 0
BITMAP
800000
C00010
600038
B000F0
F8C0E8
7C71F8
7CF3F0
BE77E0
7FF7E0
7FF7D0
3FFFE0
3FFFC0
3FFFE0
3FFF00
0FF780
01F800
01F800
137C80
1EF780
1E6680
02F400
00D000
005000
004000
ENDCHAR
STARTCHAR F001
ENCODING 61441
SWIDTH 1000 0
DWIDTH 40 0
BBX 34 29 3 0
BITMAP
003FFFF800
007FFFF800
00FFFFF800
01FFFFF800
03FFFFF800
07C0000000
07C000F800
07C000F800
07C000F800
07C000F800
07C000F800
FFFFFEF800
FFFFFEF800
FFFFFEF800
FFFFFEF800
FFFFFEF800
07C000F800
07C000F800
07C000F800
07C000F800
07C000F800
07C000F800
07C000F800
07C000F800
07C0007FC0
07C0003FC0
07C0001FC0
07C0000FC0
07C00007C0
ENDCHAR
STARTCHAR F002
ENCODING 61442
SWIDTH 1000 0
DWIDTH 40 0
BBX 34 29 3 0
BITMAP
003FFFF800
007FFFF800
00FFFFF800
01FFFFF800
03FFFFF800
07C000F800
07C000F800
07C000F800
07C000F800
07C000F800
07C000F800
FFFFFEF800
FFFFFEF800
FFFFFEF800
FFFFFEF800
FFFFFEF800
07C000F800
07C000F800
07C000F800
07C000F800
07C000F800
07C000F800
07C000F800
07C000F800
07C0007FC0
07C0003FC0
07C0001FC0
07C0000FC0
07C00007C0
ENDCHAR
ENDFONT
